<svg xmlns="http://www.w3.org/2000/svg" xmlns:xlink="http://www.w3.org/1999/xlink" width="469.6875123977661" height="26" style="width:469.6875123977661px;height:26px;font-family:Asana-Math, Asana;background:#FFF;"><g><g><g><g transform="matrix(1,0,0,1,2,20.600006103515625)"><path transform="matrix(0.017,0,0,-0.017,0,0)" d="M103 664L150 662C174 661 185 653 185 636C185 629 179 576 176 559L104 125C89 36 86 31 46 28L10 25L7 -3L39 -3L133 0L227 -3L259 -3L262 25L210 28C184 30 174 37 174 57C174 63 175 74 176 78L265 613C272 652 277 657 316 661L351 664L354 692L248 689C231 689 213 689 170 690L106 692ZM356 388L363 368L395 389C432 412 435 414 442 414C453 414 460 404 460 389C460 338 419 145 378 2L385 -9C410 -2 433 4 455 8C474 134 495 199 541 268C595 352 670 414 715 414C726 414 732 405 732 390C732 372 729 351 721 319L669 107C660 70 656 47 656 31C656 6 667 -9 686 -9C712 -9 748 12 846 85L836 103L810 86C781 67 759 56 749 56C742 56 736 65 736 76C736 81 737 92 738 96L804 372C811 401 815 429 815 446C815 469 804 482 784 482C742 482 673 444 614 389C576 354 548 320 496 247L534 408C538 426 540 438 540 449C540 470 532 482 517 482C496 482 457 460 384 408ZM1012 390L956 107C955 99 943 61 943 31C943 6 954 -9 973 -9C1008 -9 1043 11 1121 74L1152 99L1142 117L1097 86C1068 66 1048 56 1037 56C1028 56 1023 64 1023 76C1023 102 1037 183 1066 328L1079 390L1186 390L1197 440C1159 436 1125 434 1087 434C1103 528 1114 577 1132 631L1121 646C1101 634 1074 622 1043 610L1018 440C974 419 948 408 930 403L928 390ZM1547 111L1523 94C1470 56 1422 36 1386 36C1339 36 1310 73 1310 133C1310 158 1313 185 1318 214C1335 218 1444 248 1469 259C1554 296 1593 342 1593 404C1593 451 1559 482 1509 482C1441 496 1331 423 1294 349C1264 299 1234 180 1234 113C1234 35 1278 -11 1350 -11C1407 -11 1463 17 1555 92ZM1332 274C1349 343 1369 386 1398 412C1416 428 1447 440 1471 440C1500 440 1519 420 1519 388C1519 344 1484 297 1432 272C1404 258 1368 247 1323 237ZM1975 365C1978 403 1983 435 1991 476C1980 481 1976 482 1971 482C1940 482 1909 458 1873 407C1834 351 1795 291 1779 256L1811 408C1815 425 1817 438 1817 450C1817 470 1809 482 1794 482C1773 482 1735 461 1661 408L1633 388L1640 368L1672 389C1700 407 1711 412 1720 412C1730 412 1737 403 1737 390C1737 332 1694 126 1654 -2L1664 -9C1679 -4 1695 -1 1718 4L1731 6L1757 126C1775 209 1798 262 1842 319C1876 363 1903 384 1925 384C1940 384 1950 379 1961 365ZM2323 111L2299 94C2246 56 2198 36 2162 36C2115 36 2086 73 2086 133C2086 158 2089 185 2094 214C2111 218 2220 248 2245 259C2330 296 2369 342 2369 404C2369 451 2335 482 2285 482C2217 496 2107 423 2070 349C2040 299 2010 180 2010 113C2010 35 2054 -11 2126 -11C2183 -11 2239 17 2331 92ZM2108 274C2125 343 2145 386 2174 412C2192 428 2223 440 2247 440C2276 440 2295 420 2295 388C2295 344 2260 297 2208 272C2180 258 2144 247 2099 237ZM2414 148C2409 97 2403 62 2392 16C2430 -2 2464 -11 2499 -11C2548 -11 2594 7 2645 47C2696 87 2717 124 2717 174C2717 228 2685 257 2611 271L2568 279C2508 290 2489 307 2489 348C2489 401 2534 442 2591 442C2632 442 2670 424 2686 397L2686 342L2709 342C2713 377 2717 404 2728 455C2689 474 2661 482 2628 482C2576 482 2515 452 2467 404C2441 377 2430 352 2430 316C2430 260 2461 228 2527 215L2590 203C2634 195 2650 177 2650 138C2650 73 2604 29 2533 29C2498 29 2467 40 2439 64L2439 148ZM3065 284C3065 90 3172 -18 3363 -18C3459 -18 3530 5 3620 67C3620 67 3630 103 3630 103C3630 103 3620 110 3620 110C3526 53 3474 35 3396 35C3239 35 3153 131 3153 309C3153 447 3210 653 3438 653C3509 653 3561 639 3617 603L3617 519L3644 519C3649 576 3657 619 3671 665C3595 694 3538 706 3476 706C3296 706 3065 578 3065 284ZM3724 152C3724 46 3769 -11 3852 -11C3907 -11 3967 15 4012 57C4074 116 4118 230 4118 331C4118 425 4068 482 3985 482C3881 482 3724 382 3724 152ZM3948 444C4009 444 4042 399 4042 315C4042 219 4011 113 3967 60C3949 39 3923 27 3892 27C3834 27 3800 72 3800 151C3800 264 3839 387 3888 427C3901 438 3924 444 3948 444ZM4880 103L4854 86C4825 67 4803 56 4793 56C4786 56 4780 65 4780 76C4780 86 4782 95 4787 116L4862 413C4866 430 4869 446 4869 454C4869 471 4859 482 4843 482C4814 482 4776 464 4715 421C4652 376 4617 341 4568 272L4598 409C4602 429 4605 444 4605 451C4605 470 4595 482 4579 482C4549 482 4503 460 4448 418C4404 384 4384 363 4319 275L4352 408C4356 424 4358 439 4358 451C4358 470 4349 482 4335 482C4314 482 4276 461 4202 408L4174 388L4181 368C4218 391 4253 414 4260 414C4271 414 4278 404 4278 389C4278 338 4237 145 4196 2L4199 -9L4267 6L4289 108C4313 219 4340 278 4395 338C4437 384 4482 414 4510 414C4517 414 4521 406 4521 393C4521 358 4499 244 4458 69L4442 2L4447 -9L4516 6L4537 113C4553 194 4587 269 4631 318C4686 379 4736 414 4768 414C4776 414 4781 405 4781 389C4781 365 4778 351 4756 264C4716 105 4700 84 4700 31C4700 6 4711 -9 4730 -9C4756 -9 4792 12 4890 85ZM5103 -11C5159 -11 5274 62 5317 125C5358 186 5392 296 5392 371C5392 438 5369 482 5333 482C5291 482 5238 456 5186 409C5145 374 5125 348 5089 289L5113 408C5116 425 5118 440 5118 452C5118 471 5110 482 5096 482C5075 482 5037 461 4963 408L4935 388L4942 368L4974 389C5002 407 5013 412 5022 412C5032 412 5039 403 5039 389C5039 381 5037 361 5035 351L4977 8C4967 -52 4948 -143 4928 -233L4920 -270L4927 -276C4948 -269 4968 -264 5000 -259L5042 3C5063 -4 5085 -11 5103 -11ZM5070 165C5092 293 5199 424 5282 424C5308 424 5320 402 5320 356C5320 275 5280 156 5227 80C5207 51 5175 36 5134 36C5103 36 5078 43 5052 59ZM5918 473L5911 482L5843 465L5833 414C5818 336 5793 268 5762 221C5703 130 5625 59 5585 59C5577 59 5572 68 5572 85C5572 99 5574 112 5579 137L5636 408C5639 424 5641 438 5641 451C5641 470 5632 482 5618 482C5598 482 5560 461 5486 408L5458 388L5465 368L5497 389C5525 407 5536 412 5545 412C5554 412 5562 403 5562 392C5562 388 5561 378 5560 374L5497 77C5495 68 5493 44 5493 30C5493 7 5508 -11 5528 -11C5591 -11 5712 101 5796 239L5759 97C5752 73 5748 46 5748 31C5748 6 5759 -9 5778 -9C5804 -9 5840 12 5938 85L5928 103L5902 86C5878 70 5852 59 5841 59C5833 59 5828 66 5828 76C5828 112 5903 416 5918 473ZM6309 111L6285 94C6232 56 6184 36 6148 36C6101 36 6072 73 6072 133C6072 158 6075 185 6080 214C6097 218 6206 248 6231 259C6316 296 6355 342 6355 404C6355 451 6321 482 6271 482C6203 496 6093 423 6056 349C6026 299 5996 180 5996 113C5996 35 6040 -11 6112 -11C6169 -11 6225 17 6317 92ZM6094 274C6111 343 6131 386 6160 412C6178 428 6209 440 6233 440C6262 440 6281 420 6281 388C6281 344 6246 297 6194 272C6166 258 6130 247 6085 237ZM6400 148C6395 97 6389 62 6378 16C6416 -2 6450 -11 6485 -11C6534 -11 6580 7 6631 47C6682 87 6703 124 6703 174C6703 228 6671 257 6597 271L6554 279C6494 290 6475 307 6475 348C6475 401 6520 442 6577 442C6618 442 6656 424 6672 397L6672 342L6695 342C6699 377 6703 404 6714 455C6675 474 6647 482 6614 482C6562 482 6501 452 6453 404C6427 377 6416 352 6416 316C6416 260 6447 228 6513 215L6576 203C6620 195 6636 177 6636 138C6636 73 6590 29 6519 29C6484 29 6453 40 6425 64L6425 148ZM6882 390L6826 107C6825 99 6813 61 6813 31C6813 6 6824 -9 6843 -9C6878 -9 6913 11 6991 74L7022 99L7012 117L6967 86C6938 66 6918 56 6907 56C6898 56 6893 64 6893 76C6893 102 6907 183 6936 328L6949 390L7056 390L7067 440C7029 436 6995 434 6957 434C6973 528 6984 577 7002 631L6991 646C6971 634 6944 622 6913 610L6888 440C6844 419 6818 408 6800 403L6798 390ZM7106 152C7106 46 7151 -11 7234 -11C7289 -11 7349 15 7394 57C7456 116 7500 230 7500 331C7500 425 7450 482 7367 482C7263 482 7106 382 7106 152ZM7330 444C7391 444 7424 399 7424 315C7424 219 7393 113 7349 60C7331 39 7305 27 7274 27C7216 27 7182 72 7182 151C7182 264 7221 387 7270 427C7283 438 7306 444 7330 444Z" stroke="rgb(0,0,0)" stroke-opacity="1" stroke-width="8" fill="rgb(0,0,0)" fill-opacity="1"></path></g></g><g><g transform="matrix(1,0,0,1,139.387451171875,20.600006103515625)"><path transform="matrix(0.017,0,0,-0.017,0,0)" d="M604 347L604 406L65 406L65 347ZM604 134L604 193L65 193L65 134Z" stroke="rgb(0,0,0)" stroke-opacity="1" stroke-width="8" fill="rgb(0,0,0)" fill-opacity="1"></path></g></g><g><g transform="matrix(1,0,0,1,155.8499755859375,20.600006103515625)"><path transform="matrix(0.017,0,0,-0.017,0,0)" d="M45 284C45 90 152 -18 343 -18C439 -18 510 5 600 67C600 67 610 103 610 103C610 103 600 110 600 110C506 53 454 35 376 35C219 35 133 131 133 309C133 447 190 653 418 653C489 653 541 639 597 603L597 519L624 519C629 576 637 619 651 665C575 694 518 706 456 706C276 706 45 578 45 284ZM958 204L929 77C925 60 923 42 923 26C923 4 932 -9 947 -9C970 -9 1011 17 1093 85L1086 106C1062 86 1033 59 1011 59C1002 59 996 68 996 82C996 87 996 90 997 93L1089 472L1079 481L1046 463C1005 478 988 482 961 482C933 482 913 477 886 464C824 433 791 403 766 354C722 265 691 145 691 67C691 23 706 -11 725 -11C762 -11 842 41 958 204ZM1006 414C984 305 965 253 931 201C874 117 813 59 781 59C769 59 763 72 763 99C763 163 791 280 826 360C850 415 873 433 921 433C944 433 962 429 1006 414ZM1306 -11C1362 -11 1477 62 1520 125C1561 186 1595 296 1595 371C1595 438 1572 482 1536 482C1494 482 1441 456 1389 409C1348 374 1328 348 1292 289L1316 408C1319 425 1321 440 1321 452C1321 471 1313 482 1299 482C1278 482 1240 461 1166 408L1138 388L1145 368L1177 389C1205 407 1216 412 1225 412C1235 412 1242 403 1242 389C1242 381 1240 361 1238 351L1180 8C1170 -52 1151 -143 1131 -233L1123 -270L1130 -276C1151 -269 1171 -264 1203 -259L1245 3C1266 -4 1288 -11 1306 -11ZM1273 165C1295 293 1402 424 1485 424C1511 424 1523 402 1523 356C1523 275 1483 156 1430 80C1410 51 1378 36 1337 36C1306 36 1281 43 1255 59ZM1663 388L1670 368L1702 389C1739 412 1742 414 1749 414C1759 414 1767 404 1767 391C1767 384 1763 361 1759 347L1693 107C1685 76 1680 49 1680 30C1680 6 1691 -9 1710 -9C1736 -9 1772 12 1870 85L1860 103L1834 86C1805 67 1782 56 1773 56C1766 56 1760 66 1760 76C1760 86 1762 95 1767 116L1844 420C1848 437 1850 448 1850 456C1850 473 1841 482 1825 482C1803 482 1766 461 1691 408ZM1857 712C1828 712 1799 679 1799 645C1799 620 1814 604 1838 604C1869 604 1893 633 1893 671C1893 695 1878 712 1857 712ZM2031 390L1975 107C1974 99 1962 61 1962 31C1962 6 1973 -9 1992 -9C2027 -9 2062 11 2140 74L2171 99L2161 117L2116 86C2087 66 2067 56 2056 56C2047 56 2042 64 2042 76C2042 102 2056 183 2085 328L2098 390L2205 390L2216 440C2178 436 2144 434 2106 434C2122 528 2133 577 2151 631L2140 646C2120 634 2093 622 2062 610L2037 440C1993 419 1967 408 1949 403L1947 390ZM2509 204L2480 77C2476 60 2474 42 2474 26C2474 4 2483 -9 2498 -9C2521 -9 2562 17 2644 85L2637 106C2613 86 2584 59 2562 59C2553 59 2547 68 2547 82C2547 87 2547 90 2548 93L2640 472L2630 481L2597 463C2556 478 2539 482 2512 482C2484 482 2464 477 2437 464C2375 433 2342 403 2317 354C2273 265 2242 145 2242 67C2242 23 2257 -11 2276 -11C2313 -11 2393 41 2509 204ZM2557 414C2535 305 2516 253 2482 201C2425 117 2364 59 2332 59C2320 59 2314 72 2314 99C2314 163 2342 280 2377 360C2401 415 2424 433 2472 433C2495 433 2513 429 2557 414ZM2932 722L2920 733C2868 707 2832 698 2760 691L2756 670L2804 670C2828 670 2838 663 2838 648C2838 645 2838 640 2835 622C2824 567 2751 182 2736 132C2723 82 2717 52 2717 31C2717 6 2728 -9 2747 -9C2773 -9 2809 12 2907 85L2897 103L2871 86C2842 67 2820 56 2810 56C2803 56 2797 66 2797 76C2797 82 2798 89 2801 104ZM3310 664L3357 662C3381 661 3392 653 3392 636C3392 629 3386 576 3383 559L3311 125C3296 36 3293 31 3253 28L3217 25L3214 -3L3246 -3L3340 0L3434 -3L3466 -3L3469 25L3417 28C3391 30 3381 37 3381 57C3381 63 3382 74 3383 78L3472 613C3479 652 3484 657 3523 661L3558 664L3561 692L3455 689C3438 689 3420 689 3377 690L3313 692ZM3563 388L3570 368L3602 389C3639 412 3642 414 3649 414C3660 414 3667 404 3667 389C3667 338 3626 145 3585 2L3592 -9C3617 -2 3640 4 3662 8C3681 134 3702 199 3748 268C3802 352 3877 414 3922 414C3933 414 3939 405 3939 390C3939 372 3936 351 3928 319L3876 107C3867 70 3863 47 3863 31C3863 6 3874 -9 3893 -9C3919 -9 3955 12 4053 85L4043 103L4017 86C3988 67 3966 56 3956 56C3949 56 3943 65 3943 76C3943 81 3944 92 3945 96L4011 372C4018 401 4022 429 4022 446C4022 469 4011 482 3991 482C3949 482 3880 444 3821 389C3783 354 3755 320 3703 247L3741 408C3745 426 3747 438 3747 449C3747 470 3739 482 3724 482C3703 482 3664 460 3591 408ZM4128 388L4135 368L4167 389C4204 412 4207 414 4214 414C4224 414 4232 404 4232 391C4232 384 4228 361 4224 347L4158 107C4150 76 4145 49 4145 30C4145 6 4156 -9 4175 -9C4201 -9 4237 12 4335 85L4325 103L4299 86C4270 67 4247 56 4238 56C4231 56 4225 66 4225 76C4225 86 4227 95 4232 116L4309 420C4313 437 4315 448 4315 456C4315 473 4306 482 4290 482C4268 482 4231 461 4156 408ZM4322 712C4293 712 4264 679 4264 645C4264 620 4279 604 4303 604C4334 604 4358 633 4358 671C4358 695 4343 712 4322 712ZM4713 330L4736 330C4744 395 4751 432 4760 458C4736 473 4701 482 4664 482C4619 483 4546 463 4489 400C4435 352 4396 241 4396 136C4396 40 4438 -11 4518 -11C4572 -11 4620 9 4675 54L4725 95L4717 115L4702 105C4630 57 4592 40 4557 40C4501 40 4472 80 4472 159C4472 267 4507 371 4556 409C4577 425 4601 433 4632 433C4677 433 4713 414 4713 390ZM4811 388L4818 368L4850 389C4887 412 4890 414 4897 414C4907 414 4915 404 4915 391C4915 384 4911 361 4907 347L4841 107C4833 76 4828 49 4828 30C4828 6 4839 -9 4858 -9C4884 -9 4920 12 5018 85L5008 103L4982 86C4953 67 4930 56 4921 56C4914 56 4908 66 4908 76C4908 86 4910 95 4915 116L4992 420C4996 437 4998 448 4998 456C4998 473 4989 482 4973 482C4951 482 4914 461 4839 408ZM5005 712C4976 712 4947 679 4947 645C4947 620 4962 604 4986 604C5017 604 5041 633 5041 671C5041 695 5026 712 5005 712ZM5325 204L5296 77C5292 60 5290 42 5290 26C5290 4 5299 -9 5314 -9C5337 -9 5378 17 5460 85L5453 106C5429 86 5400 59 5378 59C5369 59 5363 68 5363 82C5363 87 5363 90 5364 93L5456 472L5446 481L5413 463C5372 478 5355 482 5328 482C5300 482 5280 477 5253 464C5191 433 5158 403 5133 354C5089 265 5058 145 5058 67C5058 23 5073 -11 5092 -11C5129 -11 5209 41 5325 204ZM5373 414C5351 305 5332 253 5298 201C5241 117 5180 59 5148 59C5136 59 5130 72 5130 99C5130 163 5158 280 5193 360C5217 415 5240 433 5288 433C5311 433 5329 429 5373 414ZM5748 722L5736 733C5684 707 5648 698 5576 691L5572 670L5620 670C5644 670 5654 663 5654 648C5654 645 5654 640 5651 622C5640 567 5567 182 5552 132C5539 82 5533 52 5533 31C5533 6 5544 -9 5563 -9C5589 -9 5625 12 5723 85L5713 103L5687 86C5658 67 5636 56 5626 56C5619 56 5613 66 5613 76C5613 82 5614 89 5617 104ZM6032 1C6047 -7 6063 -11 6075 -11C6108 -11 6147 18 6178 65L6254 182L6265 113C6278 28 6301 -11 6337 -11C6359 -11 6391 6 6423 35L6472 79L6463 98C6427 68 6402 53 6386 53C6371 53 6358 63 6348 83C6339 102 6328 139 6323 168L6305 269L6340 318C6387 383 6414 406 6445 406C6461 406 6473 398 6478 383L6492 387L6507 472C6495 479 6486 482 6477 482C6437 482 6397 446 6335 354L6298 299L6292 347C6280 446 6253 482 6194 482C6168 482 6146 474 6137 461L6079 378L6096 368C6126 402 6146 416 6165 416C6198 416 6220 375 6237 277L6248 215L6208 153C6165 86 6131 54 6103 54C6088 54 6077 58 6075 63L6064 91L6044 88C6044 53 6036 27 6032 1Z" stroke="rgb(0,0,0)" stroke-opacity="1" stroke-width="8" fill="rgb(0,0,0)" fill-opacity="1"></path></g></g><g><g transform="matrix(1,0,0,1,270.96246337890625,20.600006103515625)"><path transform="matrix(0.017,0,0,-0.017,0,0)" d="M146 266C146 526 243 632 301 700L282 726C225 675 60 542 60 266C60 159 85 58 133 -32C168 -99 200 -138 282 -215L301 -194C255 -137 146 -15 146 266Z" stroke="rgb(0,0,0)" stroke-opacity="1" stroke-width="8" fill="rgb(0,0,0)" fill-opacity="1"></path></g></g><g><g transform="matrix(1,0,0,1,276.61248779296875,20.600006103515625)"><path transform="matrix(0.017,0,0,-0.017,0,0)" d="M667 -3L667 27L615 30C560 33 550 44 550 96L550 700L309 598L316 548L466 614L466 96C466 44 455 33 401 30L345 27L345 -3C499 0 499 0 510 0C541 0 651 -3 667 -3Z" stroke="rgb(0,0,0)" stroke-opacity="1" stroke-width="8" fill="rgb(0,0,0)" fill-opacity="1"></path></g></g><g><g transform="matrix(1,0,0,1,292.73748779296875,20.600006103515625)"><path transform="matrix(0.017,0,0,-0.017,0,0)" d="M604 241L604 300L364 300L364 538L305 538L305 300L65 300L65 241L305 241L305 0L364 0L364 241Z" stroke="rgb(0,0,0)" stroke-opacity="1" stroke-width="8" fill="rgb(0,0,0)" fill-opacity="1"></path></g></g><g><g transform="matrix(1,0,0,1,307.5,20.600006103515625)"><path transform="matrix(0.017,0,0,-0.017,0,0)" d="M390 646L463 646C541 646 577 641 580 629C583 621 585 602 584 592L580 528L608 528L635 692L544 691C456 690 388 689 353 689C316 689 252 690 166 691L71 692L53 528L82 528L97 588C102 610 109 626 115 633C121 640 159 646 196 646L308 646L222 125C206 34 204 31 164 28L113 25L109 -3L166 -2C206 -1 235 0 251 0C270 0 301 -1 340 -2L384 -3L387 25L328 28C302 29 292 37 292 58C292 67 293 74 296 93ZM881 204L852 77C848 60 846 42 846 26C846 4 855 -9 870 -9C893 -9 934 17 1016 85L1009 106C985 86 956 59 934 59C925 59 919 68 919 82C919 87 919 90 920 93L1012 472L1002 481L969 463C928 478 911 482 884 482C856 482 836 477 809 464C747 433 714 403 689 354C645 265 614 145 614 67C614 23 629 -11 648 -11C685 -11 765 41 881 204ZM929 414C907 305 888 253 854 201C797 117 736 59 704 59C692 59 686 72 686 99C686 163 714 280 749 360C773 415 796 433 844 433C867 433 885 429 929 414ZM1084 148C1079 97 1073 62 1062 16C1100 -2 1134 -11 1169 -11C1218 -11 1264 7 1315 47C1366 87 1387 124 1387 174C1387 228 1355 257 1281 271L1238 279C1178 290 1159 307 1159 348C1159 401 1204 442 1261 442C1302 442 1340 424 1356 397L1356 342L1379 342C1383 377 1387 404 1398 455C1359 474 1331 482 1298 482C1246 482 1185 452 1137 404C1111 377 1100 352 1100 316C1100 260 1131 228 1197 215L1260 203C1304 195 1320 177 1320 138C1320 73 1274 29 1203 29C1168 29 1137 40 1109 64L1109 148ZM1712 204L1683 77C1679 60 1677 42 1677 26C1677 4 1686 -9 1701 -9C1724 -9 1765 17 1847 85L1840 106C1816 86 1787 59 1765 59C1756 59 1750 68 1750 82C1750 87 1750 90 1751 93L1843 472L1833 481L1800 463C1759 478 1742 482 1715 482C1687 482 1667 477 1640 464C1578 433 1545 403 1520 354C1476 265 1445 145 1445 67C1445 23 1460 -11 1479 -11C1516 -11 1596 41 1712 204ZM1760 414C1738 305 1719 253 1685 201C1628 117 1567 59 1535 59C1523 59 1517 72 1517 99C1517 163 1545 280 1580 360C1604 415 1627 433 1675 433C1698 433 1716 429 1760 414ZM2616 722L2604 733C2552 707 2516 698 2444 691L2440 670L2488 670C2512 670 2522 663 2522 646C2522 638 2521 629 2520 622L2492 468C2462 477 2435 482 2410 482C2341 482 2247 410 2201 323C2170 265 2150 170 2150 86C2150 21 2165 -11 2194 -11C2221 -11 2258 6 2292 33C2346 77 2379 116 2446 217L2423 126C2412 82 2407 50 2407 24C2407 3 2416 -9 2433 -9C2450 -9 2474 3 2508 28L2589 88L2579 107L2535 76C2521 66 2505 59 2496 59C2488 59 2482 68 2482 82C2482 90 2483 99 2490 128ZM2247 59C2231 59 2222 73 2222 98C2222 224 2268 380 2317 418C2330 428 2349 433 2376 433C2420 433 2449 427 2482 410L2470 351C2433 171 2292 59 2247 59ZM2960 111L2936 94C2883 56 2835 36 2799 36C2752 36 2723 73 2723 133C2723 158 2726 185 2731 214C2748 218 2857 248 2882 259C2967 296 3006 342 3006 404C3006 451 2972 482 2922 482C2854 496 2744 423 2707 349C2677 299 2647 180 2647 113C2647 35 2691 -11 2763 -11C2820 -11 2876 17 2968 92ZM2745 274C2762 343 2782 386 2811 412C2829 428 2860 440 2884 440C2913 440 2932 420 2932 388C2932 344 2897 297 2845 272C2817 258 2781 247 2736 237ZM3372 664L3419 662C3443 661 3454 653 3454 636C3454 629 3448 576 3445 559L3373 125C3358 36 3355 31 3315 28L3279 25L3276 -3L3308 -3L3402 0L3496 -3L3528 -3L3531 25L3479 28C3453 30 3443 37 3443 57C3443 63 3444 74 3445 78L3534 613C3541 652 3546 657 3585 661L3620 664L3623 692L3517 689C3500 689 3482 689 3439 690L3375 692ZM3625 388L3632 368L3664 389C3701 412 3704 414 3711 414C3722 414 3729 404 3729 389C3729 338 3688 145 3647 2L3654 -9C3679 -2 3702 4 3724 8C3743 134 3764 199 3810 268C3864 352 3939 414 3984 414C3995 414 4001 405 4001 390C4001 372 3998 351 3990 319L3938 107C3929 70 3925 47 3925 31C3925 6 3936 -9 3955 -9C3981 -9 4017 12 4115 85L4105 103L4079 86C4050 67 4028 56 4018 56C4011 56 4005 65 4005 76C4005 81 4006 92 4007 96L4073 372C4080 401 4084 429 4084 446C4084 469 4073 482 4053 482C4011 482 3942 444 3883 389C3845 354 3817 320 3765 247L3803 408C3807 426 3809 438 3809 449C3809 470 3801 482 3786 482C3765 482 3726 460 3653 408ZM4281 390L4225 107C4224 99 4212 61 4212 31C4212 6 4223 -9 4242 -9C4277 -9 4312 11 4390 74L4421 99L4411 117L4366 86C4337 66 4317 56 4306 56C4297 56 4292 64 4292 76C4292 102 4306 183 4335 328L4348 390L4455 390L4466 440C4428 436 4394 434 4356 434C4372 528 4383 577 4401 631L4390 646C4370 634 4343 622 4312 610L4287 440C4243 419 4217 408 4199 403L4197 390ZM4816 111L4792 94C4739 56 4691 36 4655 36C4608 36 4579 73 4579 133C4579 158 4582 185 4587 214C4604 218 4713 248 4738 259C4823 296 4862 342 4862 404C4862 451 4828 482 4778 482C4710 496 4600 423 4563 349C4533 299 4503 180 4503 113C4503 35 4547 -11 4619 -11C4676 -11 4732 17 4824 92ZM4601 274C4618 343 4638 386 4667 412C4685 428 4716 440 4740 440C4769 440 4788 420 4788 388C4788 344 4753 297 4701 272C4673 258 4637 247 4592 237ZM5244 365C5247 403 5252 435 5260 476C5249 481 5245 482 5240 482C5209 482 5178 458 5142 407C5103 351 5064 291 5048 256L5080 408C5084 425 5086 438 5086 450C5086 470 5078 482 5063 482C5042 482 5004 461 4930 408L4902 388L4909 368L4941 389C4969 407 4980 412 4989 412C4999 412 5006 403 5006 390C5006 332 4963 126 4923 -2L4933 -9C4948 -4 4964 -1 4987 4L5000 6L5026 126C5044 209 5067 262 5111 319C5145 363 5172 384 5194 384C5209 384 5219 379 5230 365ZM5514 -20C5592 -20 5673 24 5681 36L5701 70L5688 80C5624 42 5601 33 5558 33C5493 33 5439 62 5411 111C5392 144 5385 172 5383 230L5529 230C5598 230 5641 233 5710 244C5711 258 5712 267 5712 279C5712 394 5638 469 5526 469C5489 469 5446 456 5405 432C5323 385 5290 323 5290 219C5290 24 5426 -20 5514 -20ZM5623 267C5571 265 5547 264 5511 264C5465 264 5439 265 5385 270C5385 317 5389 339 5402 365C5423 409 5466 436 5514 436C5547 436 5573 423 5591 396C5613 363 5620 334 5623 267ZM5415 506L5455 506L5599 596C5632 617 5639 625 5639 643C5639 662 5625 677 5608 677C5593 677 5575 666 5553 644ZM5773 148C5768 97 5762 62 5751 16C5789 -2 5823 -11 5858 -11C5907 -11 5953 7 6004 47C6055 87 6076 124 6076 174C6076 228 6044 257 5970 271L5927 279C5867 290 5848 307 5848 348C5848 401 5893 442 5950 442C5991 442 6029 424 6045 397L6045 342L6068 342C6072 377 6076 404 6087 455C6048 474 6020 482 5987 482C5935 482 5874 452 5826 404C5800 377 5789 352 5789 316C5789 260 5820 228 5886 215L5949 203C5993 195 6009 177 6009 138C6009 73 5963 29 5892 29C5857 29 5826 40 5798 64L5798 148Z" stroke="rgb(0,0,0)" stroke-opacity="1" stroke-width="8" fill="rgb(0,0,0)" fill-opacity="1"></path></g></g><g><g transform="matrix(1,0,0,1,415.95001220703125,20.600006103515625)"><path transform="matrix(0.017,0,0,-0.017,0,0)" d="M51 726L32 700C87 636 187 526 187 266C187 -10 83 -131 32 -194L51 -215C104 -165 273 -23 273 265C273 542 108 675 51 726Z" stroke="rgb(0,0,0)" stroke-opacity="1" stroke-width="8" fill="rgb(0,0,0)" fill-opacity="1"></path></g></g><g><g transform="matrix(1,0,0,1,421.60003662109375,20.600006103515625)"><path transform="matrix(0.017,0,0,-0.017,0,0)" d="" stroke="rgb(0,0,0)" stroke-opacity="1" stroke-width="8" fill="rgb(0,0,0)" fill-opacity="1"></path></g></g><g><g><g><g><g transform="matrix(1,0,0,1,426.81243896484375,13.10001220703125)"><path transform="matrix(0.0119,0,0,-0.0119,0,0)" d="M390 646L463 646C541 646 577 641 580 629C583 621 585 602 584 592L580 528L608 528L635 692L544 691C456 690 388 689 353 689C316 689 252 690 166 691L71 692L53 528L82 528L97 588C102 610 109 626 115 633C121 640 159 646 196 646L308 646L222 125C206 34 204 31 164 28L113 25L109 -3L166 -2C206 -1 235 0 251 0C270 0 301 -1 340 -2L384 -3L387 25L328 28C302 29 292 37 292 58C292 67 293 74 296 93ZM644 388L651 368L683 389C720 412 723 414 730 414C740 414 748 404 748 391C748 384 744 361 740 347L674 107C666 76 661 49 661 30C661 6 672 -9 691 -9C717 -9 753 12 851 85L841 103L815 86C786 67 763 56 754 56C747 56 741 66 741 76C741 86 743 95 748 116L825 420C829 437 831 448 831 456C831 473 822 482 806 482C784 482 747 461 672 408ZM838 712C809 712 780 679 780 645C780 620 795 604 819 604C850 604 874 633 874 671C874 695 859 712 838 712ZM1215 111L1191 94C1138 56 1090 36 1054 36C1007 36 978 73 978 133C978 158 981 185 986 214C1003 218 1112 248 1137 259C1222 296 1261 342 1261 404C1261 451 1227 482 1177 482C1109 496 999 423 962 349C932 299 902 180 902 113C902 35 946 -11 1018 -11C1075 -11 1131 17 1223 92ZM1000 274C1017 343 1037 386 1066 412C1084 428 1115 440 1139 440C1168 440 1187 420 1187 388C1187 344 1152 297 1100 272C1072 258 1036 247 991 237ZM2005 103L1979 86C1950 67 1928 56 1918 56C1911 56 1905 65 1905 76C1905 86 1907 95 1912 116L1987 413C1991 430 1994 446 1994 454C1994 471 1984 482 1968 482C1939 482 1901 464 1840 421C1777 376 1742 341 1693 272L1723 409C1727 429 1730 444 1730 451C1730 470 1720 482 1704 482C1674 482 1628 460 1573 418C1529 384 1509 363 1444 275L1477 408C1481 424 1483 439 1483 451C1483 470 1474 482 1460 482C1439 482 1401 461 1327 408L1299 388L1306 368C1343 391 1378 414 1385 414C1396 414 1403 404 1403 389C1403 338 1362 145 1321 2L1324 -9L1392 6L1414 108C1438 219 1465 278 1520 338C1562 384 1607 414 1635 414C1642 414 1646 406 1646 393C1646 358 1624 244 1583 69L1567 2L1572 -9L1641 6L1662 113C1678 194 1712 269 1756 318C1811 379 1861 414 1893 414C1901 414 1906 405 1906 389C1906 365 1903 351 1881 264C1841 105 1825 84 1825 31C1825 6 1836 -9 1855 -9C1881 -9 1917 12 2015 85ZM2228 -11C2284 -11 2399 62 2442 125C2483 186 2517 296 2517 371C2517 438 2494 482 2458 482C2416 482 2363 456 2311 409C2270 374 2250 348 2214 289L2238 408C2241 425 2243 440 2243 452C2243 471 2235 482 2221 482C2200 482 2162 461 2088 408L2060 388L2067 368L2099 389C2127 407 2138 412 2147 412C2157 412 2164 403 2164 389C2164 381 2162 361 2160 351L2102 8C2092 -52 2073 -143 2053 -233L2045 -270L2052 -276C2073 -269 2093 -264 2125 -259L2167 3C2188 -4 2210 -11 2228 -11ZM2195 165C2217 293 2324 424 2407 424C2433 424 2445 402 2445 356C2445 275 2405 156 2352 80C2332 51 2300 36 2259 36C2228 36 2203 43 2177 59ZM2568 152C2568 46 2613 -11 2696 -11C2751 -11 2811 15 2856 57C2918 116 2962 230 2962 331C2962 425 2912 482 2829 482C2725 482 2568 382 2568 152ZM2792 444C2853 444 2886 399 2886 315C2886 219 2855 113 2811 60C2793 39 2767 27 2736 27C2678 27 2644 72 2644 151C2644 264 2683 387 2732 427C2745 438 2768 444 2792 444Z" stroke="rgb(0,0,0)" stroke-opacity="1" stroke-width="8" fill="rgb(0,0,0)" fill-opacity="1"></path></g></g></g></g></g><g><g transform="matrix(1,0,0,1,463.45001220703125,20.600006103515625)"><path transform="matrix(0.017,0,0,-0.017,0,0)" d="" stroke="rgb(0,0,0)" stroke-opacity="1" stroke-width="8" fill="rgb(0,0,0)" fill-opacity="1"></path></g></g></g></g></svg>