<svg xmlns="http://www.w3.org/2000/svg" xmlns:xlink="http://www.w3.org/1999/xlink" width="450.0374879837036" height="26" style="width:450.0374879837036px;height:26px;font-family:Asana-Math, Asana;background:#FFF;"><g><g><g><g transform="matrix(1,0,0,1,2,20.600006103515625)"><path transform="matrix(0.017,0,0,-0.017,0,0)" d="M45 284C45 90 152 -18 343 -18C439 -18 510 5 600 67C600 67 610 103 610 103C610 103 600 110 600 110C506 53 454 35 376 35C219 35 133 131 133 309C133 447 190 653 418 653C489 653 541 639 597 603L597 519L624 519C629 576 637 619 651 665C575 694 518 706 456 706C276 706 45 578 45 284ZM704 152C704 46 749 -11 832 -11C887 -11 947 15 992 57C1054 116 1098 230 1098 331C1098 425 1048 482 965 482C861 482 704 382 704 152ZM928 444C989 444 1022 399 1022 315C1022 219 991 113 947 60C929 39 903 27 872 27C814 27 780 72 780 151C780 264 819 387 868 427C881 438 904 444 928 444ZM1860 103L1834 86C1805 67 1783 56 1773 56C1766 56 1760 65 1760 76C1760 86 1762 95 1767 116L1842 413C1846 430 1849 446 1849 454C1849 471 1839 482 1823 482C1794 482 1756 464 1695 421C1632 376 1597 341 1548 272L1578 409C1582 429 1585 444 1585 451C1585 470 1575 482 1559 482C1529 482 1483 460 1428 418C1384 384 1364 363 1299 275L1332 408C1336 424 1338 439 1338 451C1338 470 1329 482 1315 482C1294 482 1256 461 1182 408L1154 388L1161 368C1198 391 1233 414 1240 414C1251 414 1258 404 1258 389C1258 338 1217 145 1176 2L1179 -9L1247 6L1269 108C1293 219 1320 278 1375 338C1417 384 1462 414 1490 414C1497 414 1501 406 1501 393C1501 358 1479 244 1438 69L1422 2L1427 -9L1496 6L1517 113C1533 194 1567 269 1611 318C1666 379 1716 414 1748 414C1756 414 1761 405 1761 389C1761 365 1758 351 1736 264C1696 105 1680 84 1680 31C1680 6 1691 -9 1710 -9C1736 -9 1772 12 1870 85ZM2083 -11C2139 -11 2254 62 2297 125C2338 186 2372 296 2372 371C2372 438 2349 482 2313 482C2271 482 2218 456 2166 409C2125 374 2105 348 2069 289L2093 408C2096 425 2098 440 2098 452C2098 471 2090 482 2076 482C2055 482 2017 461 1943 408L1915 388L1922 368L1954 389C1982 407 1993 412 2002 412C2012 412 2019 403 2019 389C2019 381 2017 361 2015 351L1957 8C1947 -52 1928 -143 1908 -233L1900 -270L1907 -276C1928 -269 1948 -264 1980 -259L2022 3C2043 -4 2065 -11 2083 -11ZM2050 165C2072 293 2179 424 2262 424C2288 424 2300 402 2300 356C2300 275 2260 156 2207 80C2187 51 2155 36 2114 36C2083 36 2058 43 2032 59ZM2423 152C2423 46 2468 -11 2551 -11C2606 -11 2666 15 2711 57C2773 116 2817 230 2817 331C2817 425 2767 482 2684 482C2580 482 2423 382 2423 152ZM2647 444C2708 444 2741 399 2741 315C2741 219 2710 113 2666 60C2648 39 2622 27 2591 27C2533 27 2499 72 2499 151C2499 264 2538 387 2587 427C2600 438 2623 444 2647 444ZM3341 473L3334 482L3266 465L3256 414C3241 336 3216 268 3185 221C3126 130 3048 59 3008 59C3000 59 2995 68 2995 85C2995 99 2997 112 3002 137L3059 408C3062 424 3064 438 3064 451C3064 470 3055 482 3041 482C3021 482 2983 461 2909 408L2881 388L2888 368L2920 389C2948 407 2959 412 2968 412C2977 412 2985 403 2985 392C2985 388 2984 378 2983 374L2920 77C2918 68 2916 44 2916 30C2916 7 2931 -11 2951 -11C3014 -11 3135 101 3219 239L3182 97C3175 73 3171 46 3171 31C3171 6 3182 -9 3201 -9C3227 -9 3263 12 3361 85L3351 103L3325 86C3301 70 3275 59 3264 59C3256 59 3251 66 3251 76C3251 112 3326 416 3341 473ZM3428 388L3435 368L3467 389C3504 412 3507 414 3514 414C3525 414 3532 404 3532 389C3532 338 3491 145 3450 2L3457 -9C3482 -2 3505 4 3527 8C3546 134 3567 199 3613 268C3667 352 3742 414 3787 414C3798 414 3804 405 3804 390C3804 372 3801 351 3793 319L3741 107C3732 70 3728 47 3728 31C3728 6 3739 -9 3758 -9C3784 -9 3820 12 3918 85L3908 103L3882 86C3853 67 3831 56 3821 56C3814 56 3808 65 3808 76C3808 81 3809 92 3810 96L3876 372C3883 401 3887 429 3887 446C3887 469 3876 482 3856 482C3814 482 3745 444 3686 389C3648 354 3620 320 3568 247L3606 408C3610 426 3612 438 3612 449C3612 470 3604 482 3589 482C3568 482 3529 460 3456 408ZM4442 722L4430 733C4378 707 4342 698 4270 691L4266 670L4314 670C4338 670 4348 663 4348 646C4348 638 4347 629 4346 622L4318 468C4288 477 4261 482 4236 482C4167 482 4073 410 4027 323C3996 265 3976 170 3976 86C3976 21 3991 -11 4020 -11C4047 -11 4084 6 4118 33C4172 77 4205 116 4272 217L4249 126C4238 82 4233 50 4233 24C4233 3 4242 -9 4259 -9C4276 -9 4300 3 4334 28L4415 88L4405 107L4361 76C4347 66 4331 59 4322 59C4314 59 4308 68 4308 82C4308 90 4309 99 4316 128ZM4073 59C4057 59 4048 73 4048 98C4048 224 4094 380 4143 418C4156 428 4175 433 4202 433C4246 433 4275 427 4308 410L4296 351C4259 171 4118 59 4073 59ZM4810 664L4857 662C4881 661 4892 653 4892 636C4892 629 4886 576 4883 559L4811 125C4796 36 4793 31 4753 28L4717 25L4714 -3L4746 -3L4840 0L4934 -3L4966 -3L4969 25L4917 28C4891 30 4881 37 4881 57C4881 63 4882 74 4883 78L4972 613C4979 652 4984 657 5023 661L5058 664L5061 692L4955 689C4938 689 4920 689 4877 690L4813 692ZM5063 388L5070 368L5102 389C5139 412 5142 414 5149 414C5160 414 5167 404 5167 389C5167 338 5126 145 5085 2L5092 -9C5117 -2 5140 4 5162 8C5181 134 5202 199 5248 268C5302 352 5377 414 5422 414C5433 414 5439 405 5439 390C5439 372 5436 351 5428 319L5376 107C5367 70 5363 47 5363 31C5363 6 5374 -9 5393 -9C5419 -9 5455 12 5553 85L5543 103L5517 86C5488 67 5466 56 5456 56C5449 56 5443 65 5443 76C5443 81 5444 92 5445 96L5511 372C5518 401 5522 429 5522 446C5522 469 5511 482 5491 482C5449 482 5380 444 5321 389C5283 354 5255 320 5203 247L5241 408C5245 426 5247 438 5247 449C5247 470 5239 482 5224 482C5203 482 5164 460 5091 408ZM5719 390L5663 107C5662 99 5650 61 5650 31C5650 6 5661 -9 5680 -9C5715 -9 5750 11 5828 74L5859 99L5849 117L5804 86C5775 66 5755 56 5744 56C5735 56 5730 64 5730 76C5730 102 5744 183 5773 328L5786 390L5893 390L5904 440C5866 436 5832 434 5794 434C5810 528 5821 577 5839 631L5828 646C5808 634 5781 622 5750 610L5725 440C5681 419 5655 408 5637 403L5635 390ZM6254 111L6230 94C6177 56 6129 36 6093 36C6046 36 6017 73 6017 133C6017 158 6020 185 6025 214C6042 218 6151 248 6176 259C6261 296 6300 342 6300 404C6300 451 6266 482 6216 482C6148 496 6038 423 6001 349C5971 299 5941 180 5941 113C5941 35 5985 -11 6057 -11C6114 -11 6170 17 6262 92ZM6039 274C6056 343 6076 386 6105 412C6123 428 6154 440 6178 440C6207 440 6226 420 6226 388C6226 344 6191 297 6139 272C6111 258 6075 247 6030 237ZM6682 365C6685 403 6690 435 6698 476C6687 481 6683 482 6678 482C6647 482 6616 458 6580 407C6541 351 6502 291 6486 256L6518 408C6522 425 6524 438 6524 450C6524 470 6516 482 6501 482C6480 482 6442 461 6368 408L6340 388L6347 368L6379 389C6407 407 6418 412 6427 412C6437 412 6444 403 6444 390C6444 332 6401 126 6361 -2L6371 -9C6386 -4 6402 -1 6425 4L6438 6L6464 126C6482 209 6505 262 6549 319C6583 363 6610 384 6632 384C6647 384 6657 379 6668 365ZM7030 111L7006 94C6953 56 6905 36 6869 36C6822 36 6793 73 6793 133C6793 158 6796 185 6801 214C6818 218 6927 248 6952 259C7037 296 7076 342 7076 404C7076 451 7042 482 6992 482C6924 496 6814 423 6777 349C6747 299 6717 180 6717 113C6717 35 6761 -11 6833 -11C6890 -11 6946 17 7038 92ZM6815 274C6832 343 6852 386 6881 412C6899 428 6930 440 6954 440C6983 440 7002 420 7002 388C7002 344 6967 297 6915 272C6887 258 6851 247 6806 237ZM7121 148C7116 97 7110 62 7099 16C7137 -2 7171 -11 7206 -11C7255 -11 7301 7 7352 47C7403 87 7424 124 7424 174C7424 228 7392 257 7318 271L7275 279C7215 290 7196 307 7196 348C7196 401 7241 442 7298 442C7339 442 7377 424 7393 397L7393 342L7416 342C7420 377 7424 404 7435 455C7396 474 7368 482 7335 482C7283 482 7222 452 7174 404C7148 377 7137 352 7137 316C7137 260 7168 228 7234 215L7297 203C7341 195 7357 177 7357 138C7357 73 7311 29 7240 29C7205 29 7174 40 7146 64L7146 148ZM7603 390L7547 107C7546 99 7534 61 7534 31C7534 6 7545 -9 7564 -9C7599 -9 7634 11 7712 74L7743 99L7733 117L7688 86C7659 66 7639 56 7628 56C7619 56 7614 64 7614 76C7614 102 7628 183 7657 328L7670 390L7777 390L7788 440C7750 436 7716 434 7678 434C7694 528 7705 577 7723 631L7712 646C7692 634 7665 622 7634 610L7609 440C7565 419 7539 408 7521 403L7519 390Z" stroke="rgb(0,0,0)" stroke-opacity="1" stroke-width="8" fill="rgb(0,0,0)" fill-opacity="1"></path></g></g><g><g transform="matrix(1,0,0,1,144.112548828125,20.600006103515625)"><path transform="matrix(0.017,0,0,-0.017,0,0)" d="M604 347L604 406L65 406L65 347ZM604 134L604 193L65 193L65 134Z" stroke="rgb(0,0,0)" stroke-opacity="1" stroke-width="8" fill="rgb(0,0,0)" fill-opacity="1"></path></g></g><g><g transform="matrix(1,0,0,1,160.57501220703125,20.600006103515625)"><path transform="matrix(0.017,0,0,-0.017,0,0)" d="M103 664L150 662C174 661 185 653 185 636C185 629 179 576 176 559L104 125C89 36 86 31 46 28L10 25L7 -3L39 -3L133 0L227 -3L259 -3L262 25L210 28C184 30 174 37 174 57C174 63 175 74 176 78L265 613C272 652 277 657 316 661L351 664L354 692L248 689C231 689 213 689 170 690L106 692ZM356 388L363 368L395 389C432 412 435 414 442 414C453 414 460 404 460 389C460 338 419 145 378 2L385 -9C410 -2 433 4 455 8C474 134 495 199 541 268C595 352 670 414 715 414C726 414 732 405 732 390C732 372 729 351 721 319L669 107C660 70 656 47 656 31C656 6 667 -9 686 -9C712 -9 748 12 846 85L836 103L810 86C781 67 759 56 749 56C742 56 736 65 736 76C736 81 737 92 738 96L804 372C811 401 815 429 815 446C815 469 804 482 784 482C742 482 673 444 614 389C576 354 548 320 496 247L534 408C538 426 540 438 540 449C540 470 532 482 517 482C496 482 457 460 384 408ZM921 388L928 368L960 389C997 412 1000 414 1007 414C1017 414 1025 404 1025 391C1025 384 1021 361 1017 347L951 107C943 76 938 49 938 30C938 6 949 -9 968 -9C994 -9 1030 12 1128 85L1118 103L1092 86C1063 67 1040 56 1031 56C1024 56 1018 66 1018 76C1018 86 1020 95 1025 116L1102 420C1106 437 1108 448 1108 456C1108 473 1099 482 1083 482C1061 482 1024 461 949 408ZM1115 712C1086 712 1057 679 1057 645C1057 620 1072 604 1096 604C1127 604 1151 633 1151 671C1151 695 1136 712 1115 712ZM1289 390L1233 107C1232 99 1220 61 1220 31C1220 6 1231 -9 1250 -9C1285 -9 1320 11 1398 74L1429 99L1419 117L1374 86C1345 66 1325 56 1314 56C1305 56 1300 64 1300 76C1300 102 1314 183 1343 328L1356 390L1463 390L1474 440C1436 436 1402 434 1364 434C1380 528 1391 577 1409 631L1398 646C1378 634 1351 622 1320 610L1295 440C1251 419 1225 408 1207 403L1205 390ZM1530 388L1537 368L1569 389C1606 412 1609 414 1616 414C1626 414 1634 404 1634 391C1634 384 1630 361 1626 347L1560 107C1552 76 1547 49 1547 30C1547 6 1558 -9 1577 -9C1603 -9 1639 12 1737 85L1727 103L1701 86C1672 67 1649 56 1640 56C1633 56 1627 66 1627 76C1627 86 1629 95 1634 116L1711 420C1715 437 1717 448 1717 456C1717 473 1708 482 1692 482C1670 482 1633 461 1558 408ZM1724 712C1695 712 1666 679 1666 645C1666 620 1681 604 1705 604C1736 604 1760 633 1760 671C1760 695 1745 712 1724 712ZM2044 204L2015 77C2011 60 2009 42 2009 26C2009 4 2018 -9 2033 -9C2056 -9 2097 17 2179 85L2172 106C2148 86 2119 59 2097 59C2088 59 2082 68 2082 82C2082 87 2082 90 2083 93L2175 472L2165 481L2132 463C2091 478 2074 482 2047 482C2019 482 1999 477 1972 464C1910 433 1877 403 1852 354C1808 265 1777 145 1777 67C1777 23 1792 -11 1811 -11C1848 -11 1928 41 2044 204ZM2092 414C2070 305 2051 253 2017 201C1960 117 1899 59 1867 59C1855 59 1849 72 1849 99C1849 163 1877 280 1912 360C1936 415 1959 433 2007 433C2030 433 2048 429 2092 414ZM2467 722L2455 733C2403 707 2367 698 2295 691L2291 670L2339 670C2363 670 2373 663 2373 648C2373 645 2373 640 2370 622C2359 567 2286 182 2271 132C2258 82 2252 52 2252 31C2252 6 2263 -9 2282 -9C2308 -9 2344 12 2442 85L2432 103L2406 86C2377 67 2355 56 2345 56C2338 56 2332 66 2332 76C2332 82 2333 89 2336 104ZM2787 284C2787 90 2894 -18 3085 -18C3181 -18 3252 5 3342 67C3342 67 3352 103 3352 103C3352 103 3342 110 3342 110C3248 53 3196 35 3118 35C2961 35 2875 131 2875 309C2875 447 2932 653 3160 653C3231 653 3283 639 3339 603L3339 519L3366 519C3371 576 3379 619 3393 665C3317 694 3260 706 3198 706C3018 706 2787 578 2787 284ZM3700 204L3671 77C3667 60 3665 42 3665 26C3665 4 3674 -9 3689 -9C3712 -9 3753 17 3835 85L3828 106C3804 86 3775 59 3753 59C3744 59 3738 68 3738 82C3738 87 3738 90 3739 93L3831 472L3821 481L3788 463C3747 478 3730 482 3703 482C3675 482 3655 477 3628 464C3566 433 3533 403 3508 354C3464 265 3433 145 3433 67C3433 23 3448 -11 3467 -11C3504 -11 3584 41 3700 204ZM3748 414C3726 305 3707 253 3673 201C3616 117 3555 59 3523 59C3511 59 3505 72 3505 99C3505 163 3533 280 3568 360C3592 415 3615 433 3663 433C3686 433 3704 429 3748 414ZM4048 -11C4104 -11 4219 62 4262 125C4303 186 4337 296 4337 371C4337 438 4314 482 4278 482C4236 482 4183 456 4131 409C4090 374 4070 348 4034 289L4058 408C4061 425 4063 440 4063 452C4063 471 4055 482 4041 482C4020 482 3982 461 3908 408L3880 388L3887 368L3919 389C3947 407 3958 412 3967 412C3977 412 3984 403 3984 389C3984 381 3982 361 3980 351L3922 8C3912 -52 3893 -143 3873 -233L3865 -270L3872 -276C3893 -269 3913 -264 3945 -259L3987 3C4008 -4 4030 -11 4048 -11ZM4015 165C4037 293 4144 424 4227 424C4253 424 4265 402 4265 356C4265 275 4225 156 4172 80C4152 51 4120 36 4079 36C4048 36 4023 43 3997 59ZM4405 388L4412 368L4444 389C4481 412 4484 414 4491 414C4501 414 4509 404 4509 391C4509 384 4505 361 4501 347L4435 107C4427 76 4422 49 4422 30C4422 6 4433 -9 4452 -9C4478 -9 4514 12 4612 85L4602 103L4576 86C4547 67 4524 56 4515 56C4508 56 4502 66 4502 76C4502 86 4504 95 4509 116L4586 420C4590 437 4592 448 4592 456C4592 473 4583 482 4567 482C4545 482 4508 461 4433 408ZM4599 712C4570 712 4541 679 4541 645C4541 620 4556 604 4580 604C4611 604 4635 633 4635 671C4635 695 4620 712 4599 712ZM4773 390L4717 107C4716 99 4704 61 4704 31C4704 6 4715 -9 4734 -9C4769 -9 4804 11 4882 74L4913 99L4903 117L4858 86C4829 66 4809 56 4798 56C4789 56 4784 64 4784 76C4784 102 4798 183 4827 328L4840 390L4947 390L4958 440C4920 436 4886 434 4848 434C4864 528 4875 577 4893 631L4882 646C4862 634 4835 622 4804 610L4779 440C4735 419 4709 408 4691 403L4689 390ZM5251 204L5222 77C5218 60 5216 42 5216 26C5216 4 5225 -9 5240 -9C5263 -9 5304 17 5386 85L5379 106C5355 86 5326 59 5304 59C5295 59 5289 68 5289 82C5289 87 5289 90 5290 93L5382 472L5372 481L5339 463C5298 478 5281 482 5254 482C5226 482 5206 477 5179 464C5117 433 5084 403 5059 354C5015 265 4984 145 4984 67C4984 23 4999 -11 5018 -11C5055 -11 5135 41 5251 204ZM5299 414C5277 305 5258 253 5224 201C5167 117 5106 59 5074 59C5062 59 5056 72 5056 99C5056 163 5084 280 5119 360C5143 415 5166 433 5214 433C5237 433 5255 429 5299 414ZM5674 722L5662 733C5610 707 5574 698 5502 691L5498 670L5546 670C5570 670 5580 663 5580 648C5580 645 5580 640 5577 622C5566 567 5493 182 5478 132C5465 82 5459 52 5459 31C5459 6 5470 -9 5489 -9C5515 -9 5551 12 5649 85L5639 103L5613 86C5584 67 5562 56 5552 56C5545 56 5539 66 5539 76C5539 82 5540 89 5543 104ZM6207 1C6222 -7 6238 -11 6250 -11C6283 -11 6322 18 6353 65L6429 182L6440 113C6453 28 6476 -11 6512 -11C6534 -11 6566 6 6598 35L6647 79L6638 98C6602 68 6577 53 6561 53C6546 53 6533 63 6523 83C6514 102 6503 139 6498 168L6480 269L6515 318C6562 383 6589 406 6620 406C6636 406 6648 398 6653 383L6667 387L6682 472C6670 479 6661 482 6652 482C6612 482 6572 446 6510 354L6473 299L6467 347C6455 446 6428 482 6369 482C6343 482 6321 474 6312 461L6254 378L6271 368C6301 402 6321 416 6340 416C6373 416 6395 375 6412 277L6423 215L6383 153C6340 86 6306 54 6278 54C6263 54 6252 58 6250 63L6239 91L6219 88C6219 53 6211 27 6207 1Z" stroke="rgb(0,0,0)" stroke-opacity="1" stroke-width="8" fill="rgb(0,0,0)" fill-opacity="1"></path></g></g><g><g transform="matrix(1,0,0,1,278.66253662109375,20.600006103515625)"><path transform="matrix(0.017,0,0,-0.017,0,0)" d="M146 266C146 526 243 632 301 700L282 726C225 675 60 542 60 266C60 159 85 58 133 -32C168 -99 200 -138 282 -215L301 -194C255 -137 146 -15 146 266Z" stroke="rgb(0,0,0)" stroke-opacity="1" stroke-width="8" fill="rgb(0,0,0)" fill-opacity="1"></path></g></g><g><g transform="matrix(1,0,0,1,284.3125,20.600006103515625)"><path transform="matrix(0.017,0,0,-0.017,0,0)" d="M667 -3L667 27L615 30C560 33 550 44 550 96L550 700L309 598L316 548L466 614L466 96C466 44 455 33 401 30L345 27L345 -3C499 0 499 0 510 0C541 0 651 -3 667 -3Z" stroke="rgb(0,0,0)" stroke-opacity="1" stroke-width="8" fill="rgb(0,0,0)" fill-opacity="1"></path></g></g><g><g transform="matrix(1,0,0,1,300.4375,20.600006103515625)"><path transform="matrix(0.017,0,0,-0.017,0,0)" d="M604 241L604 300L364 300L364 538L305 538L305 300L65 300L65 241L305 241L305 0L364 0L364 241Z" stroke="rgb(0,0,0)" stroke-opacity="1" stroke-width="8" fill="rgb(0,0,0)" fill-opacity="1"></path></g></g><g><g transform="matrix(1,0,0,1,315.20001220703125,20.600006103515625)"><path transform="matrix(0.017,0,0,-0.017,0,0)" d="M103 664L150 662C174 661 185 653 185 636C185 629 179 576 176 559L104 125C89 36 86 31 46 28L10 25L7 -3L39 -3L133 0L227 -3L259 -3L262 25L210 28C184 30 174 37 174 57C174 63 175 74 176 78L265 613C272 652 277 657 316 661L351 664L354 692L248 689C231 689 213 689 170 690L106 692ZM356 388L363 368L395 389C432 412 435 414 442 414C453 414 460 404 460 389C460 338 419 145 378 2L385 -9C410 -2 433 4 455 8C474 134 495 199 541 268C595 352 670 414 715 414C726 414 732 405 732 390C732 372 729 351 721 319L669 107C660 70 656 47 656 31C656 6 667 -9 686 -9C712 -9 748 12 846 85L836 103L810 86C781 67 759 56 749 56C742 56 736 65 736 76C736 81 737 92 738 96L804 372C811 401 815 429 815 446C815 469 804 482 784 482C742 482 673 444 614 389C576 354 548 320 496 247L534 408C538 426 540 438 540 449C540 470 532 482 517 482C496 482 457 460 384 408ZM1012 390L956 107C955 99 943 61 943 31C943 6 954 -9 973 -9C1008 -9 1043 11 1121 74L1152 99L1142 117L1097 86C1068 66 1048 56 1037 56C1028 56 1023 64 1023 76C1023 102 1037 183 1066 328L1079 390L1186 390L1197 440C1159 436 1125 434 1087 434C1103 528 1114 577 1132 631L1121 646C1101 634 1074 622 1043 610L1018 440C974 419 948 408 930 403L928 390ZM1547 111L1523 94C1470 56 1422 36 1386 36C1339 36 1310 73 1310 133C1310 158 1313 185 1318 214C1335 218 1444 248 1469 259C1554 296 1593 342 1593 404C1593 451 1559 482 1509 482C1441 496 1331 423 1294 349C1264 299 1234 180 1234 113C1234 35 1278 -11 1350 -11C1407 -11 1463 17 1555 92ZM1332 274C1349 343 1369 386 1398 412C1416 428 1447 440 1471 440C1500 440 1519 420 1519 388C1519 344 1484 297 1432 272C1404 258 1368 247 1323 237ZM1975 365C1978 403 1983 435 1991 476C1980 481 1976 482 1971 482C1940 482 1909 458 1873 407C1834 351 1795 291 1779 256L1811 408C1815 425 1817 438 1817 450C1817 470 1809 482 1794 482C1773 482 1735 461 1661 408L1633 388L1640 368L1672 389C1700 407 1711 412 1720 412C1730 412 1737 403 1737 390C1737 332 1694 126 1654 -2L1664 -9C1679 -4 1695 -1 1718 4L1731 6L1757 126C1775 209 1798 262 1842 319C1876 363 1903 384 1925 384C1940 384 1950 379 1961 365ZM2323 111L2299 94C2246 56 2198 36 2162 36C2115 36 2086 73 2086 133C2086 158 2089 185 2094 214C2111 218 2220 248 2245 259C2330 296 2369 342 2369 404C2369 451 2335 482 2285 482C2217 496 2107 423 2070 349C2040 299 2010 180 2010 113C2010 35 2054 -11 2126 -11C2183 -11 2239 17 2331 92ZM2108 274C2125 343 2145 386 2174 412C2192 428 2223 440 2247 440C2276 440 2295 420 2295 388C2295 344 2260 297 2208 272C2180 258 2144 247 2099 237ZM2414 148C2409 97 2403 62 2392 16C2430 -2 2464 -11 2499 -11C2548 -11 2594 7 2645 47C2696 87 2717 124 2717 174C2717 228 2685 257 2611 271L2568 279C2508 290 2489 307 2489 348C2489 401 2534 442 2591 442C2632 442 2670 424 2686 397L2686 342L2709 342C2713 377 2717 404 2728 455C2689 474 2661 482 2628 482C2576 482 2515 452 2467 404C2441 377 2430 352 2430 316C2430 260 2461 228 2527 215L2590 203C2634 195 2650 177 2650 138C2650 73 2604 29 2533 29C2498 29 2467 40 2439 64L2439 148ZM2896 390L2840 107C2839 99 2827 61 2827 31C2827 6 2838 -9 2857 -9C2892 -9 2927 11 3005 74L3036 99L3026 117L2981 86C2952 66 2932 56 2921 56C2912 56 2907 64 2907 76C2907 102 2921 183 2950 328L2963 390L3070 390L3081 440C3043 436 3009 434 2971 434C2987 528 2998 577 3016 631L3005 646C2985 634 2958 622 2927 610L2902 440C2858 419 2832 408 2814 403L2812 390ZM3457 664L3513 662C3537 661 3548 653 3548 635C3548 621 3544 589 3539 559L3464 125C3448 34 3446 32 3406 28L3365 25L3361 -3L3403 -2C3450 0 3469 0 3493 0L3590 -3L3616 -3L3619 25L3570 28C3543 30 3534 38 3534 58C3534 67 3535 76 3538 93L3639 648C3668 654 3688 656 3715 656C3802 656 3848 617 3848 543C3848 448 3770 378 3666 378L3622 378L3619 367C3753 172 3784 124 3859 -3C3859 -3 3944 0 3944 0C3945 0 3959 -1 3978 -3L3991 -3L3991 24C3951 29 3940 37 3911 79L3727 354C3782 364 3811 376 3847 402C3905 444 3936 499 3936 560C3936 646 3872 693 3761 691L3460 691ZM4289 204L4260 77C4256 60 4254 42 4254 26C4254 4 4263 -9 4278 -9C4301 -9 4342 17 4424 85L4417 106C4393 86 4364 59 4342 59C4333 59 4327 68 4327 82C4327 87 4327 90 4328 93L4420 472L4410 481L4377 463C4336 478 4319 482 4292 482C4264 482 4244 477 4217 464C4155 433 4122 403 4097 354C4053 265 4022 145 4022 67C4022 23 4037 -11 4056 -11C4093 -11 4173 41 4289 204ZM4337 414C4315 305 4296 253 4262 201C4205 117 4144 59 4112 59C4100 59 4094 72 4094 99C4094 163 4122 280 4157 360C4181 415 4204 433 4252 433C4275 433 4293 429 4337 414ZM4586 390L4530 107C4529 99 4517 61 4517 31C4517 6 4528 -9 4547 -9C4582 -9 4617 11 4695 74L4726 99L4716 117L4671 86C4642 66 4622 56 4611 56C4602 56 4597 64 4597 76C4597 102 4611 183 4640 328L4653 390L4760 390L4771 440C4733 436 4699 434 4661 434C4677 528 4688 577 4706 631L4695 646C4675 634 4648 622 4617 610L4592 440C4548 419 4522 408 4504 403L4502 390ZM5121 111L5097 94C5044 56 4996 36 4960 36C4913 36 4884 73 4884 133C4884 158 4887 185 4892 214C4909 218 5018 248 5043 259C5128 296 5167 342 5167 404C5167 451 5133 482 5083 482C5015 496 4905 423 4868 349C4838 299 4808 180 4808 113C4808 35 4852 -11 4924 -11C4981 -11 5037 17 5129 92ZM4906 274C4923 343 4943 386 4972 412C4990 428 5021 440 5045 440C5074 440 5093 420 5093 388C5093 344 5058 297 5006 272C4978 258 4942 247 4897 237Z" stroke="rgb(0,0,0)" stroke-opacity="1" stroke-width="8" fill="rgb(0,0,0)" fill-opacity="1"></path></g></g><g><g transform="matrix(1,0,0,1,407.51251220703125,20.600006103515625)"><path transform="matrix(0.017,0,0,-0.017,0,0)" d="M51 726L32 700C87 636 187 526 187 266C187 -10 83 -131 32 -194L51 -215C104 -165 273 -23 273 265C273 542 108 675 51 726Z" stroke="rgb(0,0,0)" stroke-opacity="1" stroke-width="8" fill="rgb(0,0,0)" fill-opacity="1"></path></g></g><g><g transform="matrix(1,0,0,1,413.16253662109375,20.600006103515625)"><path transform="matrix(0.017,0,0,-0.017,0,0)" d="" stroke="rgb(0,0,0)" stroke-opacity="1" stroke-width="8" fill="rgb(0,0,0)" fill-opacity="1"></path></g></g><g><g><g><g><g transform="matrix(1,0,0,1,418.37506103515625,13.10001220703125)"><path transform="matrix(0.0119,0,0,-0.0119,0,0)" d="M390 646L463 646C541 646 577 641 580 629C583 621 585 602 584 592L580 528L608 528L635 692L544 691C456 690 388 689 353 689C316 689 252 690 166 691L71 692L53 528L82 528L97 588C102 610 109 626 115 633C121 640 159 646 196 646L308 646L222 125C206 34 204 31 164 28L113 25L109 -3L166 -2C206 -1 235 0 251 0C270 0 301 -1 340 -2L384 -3L387 25L328 28C302 29 292 37 292 58C292 67 293 74 296 93ZM644 388L651 368L683 389C720 412 723 414 730 414C740 414 748 404 748 391C748 384 744 361 740 347L674 107C666 76 661 49 661 30C661 6 672 -9 691 -9C717 -9 753 12 851 85L841 103L815 86C786 67 763 56 754 56C747 56 741 66 741 76C741 86 743 95 748 116L825 420C829 437 831 448 831 456C831 473 822 482 806 482C784 482 747 461 672 408ZM838 712C809 712 780 679 780 645C780 620 795 604 819 604C850 604 874 633 874 671C874 695 859 712 838 712ZM1617 103L1591 86C1562 67 1540 56 1530 56C1523 56 1517 65 1517 76C1517 86 1519 95 1524 116L1599 413C1603 430 1606 446 1606 454C1606 471 1596 482 1580 482C1551 482 1513 464 1452 421C1389 376 1354 341 1305 272L1335 409C1339 429 1342 444 1342 451C1342 470 1332 482 1316 482C1286 482 1240 460 1185 418C1141 384 1121 363 1056 275L1089 408C1093 424 1095 439 1095 451C1095 470 1086 482 1072 482C1051 482 1013 461 939 408L911 388L918 368C955 391 990 414 997 414C1008 414 1015 404 1015 389C1015 338 974 145 933 2L936 -9L1004 6L1026 108C1050 219 1077 278 1132 338C1174 384 1219 414 1247 414C1254 414 1258 406 1258 393C1258 358 1236 244 1195 69L1179 2L1184 -9L1253 6L1274 113C1290 194 1324 269 1368 318C1423 379 1473 414 1505 414C1513 414 1518 405 1518 389C1518 365 1515 351 1493 264C1453 105 1437 84 1437 31C1437 6 1448 -9 1467 -9C1493 -9 1529 12 1627 85ZM1992 111L1968 94C1915 56 1867 36 1831 36C1784 36 1755 73 1755 133C1755 158 1758 185 1763 214C1780 218 1889 248 1914 259C1999 296 2038 342 2038 404C2038 451 2004 482 1954 482C1886 496 1776 423 1739 349C1709 299 1679 180 1679 113C1679 35 1723 -11 1795 -11C1852 -11 1908 17 2000 92ZM1777 274C1794 343 1814 386 1843 412C1861 428 1892 440 1916 440C1945 440 1964 420 1964 388C1964 344 1929 297 1877 272C1849 258 1813 247 1768 237Z" stroke="rgb(0,0,0)" stroke-opacity="1" stroke-width="8" fill="rgb(0,0,0)" fill-opacity="1"></path></g></g></g></g></g><g><g transform="matrix(1,0,0,1,443.79998779296875,20.600006103515625)"><path transform="matrix(0.017,0,0,-0.017,0,0)" d="" stroke="rgb(0,0,0)" stroke-opacity="1" stroke-width="8" fill="rgb(0,0,0)" fill-opacity="1"></path></g></g></g></g></svg>