<svg xmlns="http://www.w3.org/2000/svg" xmlns:xlink="http://www.w3.org/1999/xlink" width="396.1500549316406" height="24.399999618530273" style="width:396.1500549316406px;height:24.399999618530273px;font-family:Asana-Math, Asana;background:#FFF;"><g><g><g><g transform="matrix(1,0,0,1,2,19)"><path transform="matrix(0.017,0,0,-0.017,0,0)" d="M108 471C108 386 146 339 230 319L325 296C379 283 406 248 406 191C406 96 335 30 232 30C178 30 140 42 96 73L96 172L66 172C60 117 53 72 42 20C91 -5 144 -18 197 -18C352 -18 485 99 485 234C485 313 442 355 341 377L276 391C210 405 180 442 180 508C180 595 247 658 339 658C388 658 421 645 451 613L451 537L481 537C485 591 492 629 506 672C461 696 421 706 374 706C250 706 108 614 108 471ZM589 388L596 368L628 389C665 412 668 414 675 414C685 414 693 404 693 391C693 384 689 361 685 347L619 107C611 76 606 49 606 30C606 6 617 -9 636 -9C662 -9 698 12 796 85L786 103L760 86C731 67 708 56 699 56C692 56 686 66 686 76C686 86 688 95 693 116L770 420C774 437 776 448 776 456C776 473 767 482 751 482C729 482 692 461 617 408ZM783 712C754 712 725 679 725 645C725 620 740 604 764 604C795 604 819 633 819 671C819 695 804 712 783 712ZM1562 103L1536 86C1507 67 1485 56 1475 56C1468 56 1462 65 1462 76C1462 86 1464 95 1469 116L1544 413C1548 430 1551 446 1551 454C1551 471 1541 482 1525 482C1496 482 1458 464 1397 421C1334 376 1299 341 1250 272L1280 409C1284 429 1287 444 1287 451C1287 470 1277 482 1261 482C1231 482 1185 460 1130 418C1086 384 1066 363 1001 275L1034 408C1038 424 1040 439 1040 451C1040 470 1031 482 1017 482C996 482 958 461 884 408L856 388L863 368C900 391 935 414 942 414C953 414 960 404 960 389C960 338 919 145 878 2L881 -9L949 6L971 108C995 219 1022 278 1077 338C1119 384 1164 414 1192 414C1199 414 1203 406 1203 393C1203 358 1181 244 1140 69L1124 2L1129 -9L1198 6L1219 113C1235 194 1269 269 1313 318C1368 379 1418 414 1450 414C1458 414 1463 405 1463 389C1463 365 1460 351 1438 264C1398 105 1382 84 1382 31C1382 6 1393 -9 1412 -9C1438 -9 1474 12 1572 85ZM1785 -11C1841 -11 1956 62 1999 125C2040 186 2074 296 2074 371C2074 438 2051 482 2015 482C1973 482 1920 456 1868 409C1827 374 1807 348 1771 289L1795 408C1798 425 1800 440 1800 452C1800 471 1792 482 1778 482C1757 482 1719 461 1645 408L1617 388L1624 368L1656 389C1684 407 1695 412 1704 412C1714 412 1721 403 1721 389C1721 381 1719 361 1717 351L1659 8C1649 -52 1630 -143 1610 -233L1602 -270L1609 -276C1630 -269 1650 -264 1682 -259L1724 3C1745 -4 1767 -11 1785 -11ZM1752 165C1774 293 1881 424 1964 424C1990 424 2002 402 2002 356C2002 275 1962 156 1909 80C1889 51 1857 36 1816 36C1785 36 1760 43 1734 59ZM2359 722L2347 733C2295 707 2259 698 2187 691L2183 670L2231 670C2255 670 2265 663 2265 648C2265 645 2265 640 2262 622C2251 567 2178 182 2163 132C2150 82 2144 52 2144 31C2144 6 2155 -9 2174 -9C2200 -9 2236 12 2334 85L2324 103L2298 86C2269 67 2247 56 2237 56C2230 56 2224 66 2224 76C2224 82 2225 89 2228 104ZM2713 111L2689 94C2636 56 2588 36 2552 36C2505 36 2476 73 2476 133C2476 158 2479 185 2484 214C2501 218 2610 248 2635 259C2720 296 2759 342 2759 404C2759 451 2725 482 2675 482C2607 496 2497 423 2460 349C2430 299 2400 180 2400 113C2400 35 2444 -11 2516 -11C2573 -11 2629 17 2721 92ZM2498 274C2515 343 2535 386 2564 412C2582 428 2613 440 2637 440C2666 440 2685 420 2685 388C2685 344 2650 297 2598 272C2570 258 2534 247 2489 237ZM3125 664L3172 662C3196 661 3207 653 3207 636C3207 629 3201 576 3198 559L3126 125C3111 36 3108 31 3068 28L3032 25L3029 -3L3061 -3L3155 0L3249 -3L3281 -3L3284 25L3232 28C3206 30 3196 37 3196 57C3196 63 3197 74 3198 78L3287 613C3294 652 3299 657 3338 661L3373 664L3376 692L3270 689C3253 689 3235 689 3192 690L3128 692ZM3378 388L3385 368L3417 389C3454 412 3457 414 3464 414C3475 414 3482 404 3482 389C3482 338 3441 145 3400 2L3407 -9C3432 -2 3455 4 3477 8C3496 134 3517 199 3563 268C3617 352 3692 414 3737 414C3748 414 3754 405 3754 390C3754 372 3751 351 3743 319L3691 107C3682 70 3678 47 3678 31C3678 6 3689 -9 3708 -9C3734 -9 3770 12 3868 85L3858 103L3832 86C3803 67 3781 56 3771 56C3764 56 3758 65 3758 76C3758 81 3759 92 3760 96L3826 372C3833 401 3837 429 3837 446C3837 469 3826 482 3806 482C3764 482 3695 444 3636 389C3598 354 3570 320 3518 247L3556 408C3560 426 3562 438 3562 449C3562 470 3554 482 3539 482C3518 482 3479 460 3406 408ZM4034 390L3978 107C3977 99 3965 61 3965 31C3965 6 3976 -9 3995 -9C4030 -9 4065 11 4143 74L4174 99L4164 117L4119 86C4090 66 4070 56 4059 56C4050 56 4045 64 4045 76C4045 102 4059 183 4088 328L4101 390L4208 390L4219 440C4181 436 4147 434 4109 434C4125 528 4136 577 4154 631L4143 646C4123 634 4096 622 4065 610L4040 440C3996 419 3970 408 3952 403L3950 390ZM4569 111L4545 94C4492 56 4444 36 4408 36C4361 36 4332 73 4332 133C4332 158 4335 185 4340 214C4357 218 4466 248 4491 259C4576 296 4615 342 4615 404C4615 451 4581 482 4531 482C4463 496 4353 423 4316 349C4286 299 4256 180 4256 113C4256 35 4300 -11 4372 -11C4429 -11 4485 17 4577 92ZM4354 274C4371 343 4391 386 4420 412C4438 428 4469 440 4493 440C4522 440 4541 420 4541 388C4541 344 4506 297 4454 272C4426 258 4390 247 4345 237ZM4997 365C5000 403 5005 435 5013 476C5002 481 4998 482 4993 482C4962 482 4931 458 4895 407C4856 351 4817 291 4801 256L4833 408C4837 425 4839 438 4839 450C4839 470 4831 482 4816 482C4795 482 4757 461 4683 408L4655 388L4662 368L4694 389C4722 407 4733 412 4742 412C4752 412 4759 403 4759 390C4759 332 4716 126 4676 -2L4686 -9C4701 -4 4717 -1 4740 4L4753 6L4779 126C4797 209 4820 262 4864 319C4898 363 4925 384 4947 384C4962 384 4972 379 4983 365ZM5345 111L5321 94C5268 56 5220 36 5184 36C5137 36 5108 73 5108 133C5108 158 5111 185 5116 214C5133 218 5242 248 5267 259C5352 296 5391 342 5391 404C5391 451 5357 482 5307 482C5239 496 5129 423 5092 349C5062 299 5032 180 5032 113C5032 35 5076 -11 5148 -11C5205 -11 5261 17 5353 92ZM5130 274C5147 343 5167 386 5196 412C5214 428 5245 440 5269 440C5298 440 5317 420 5317 388C5317 344 5282 297 5230 272C5202 258 5166 247 5121 237ZM5436 148C5431 97 5425 62 5414 16C5452 -2 5486 -11 5521 -11C5570 -11 5616 7 5667 47C5718 87 5739 124 5739 174C5739 228 5707 257 5633 271L5590 279C5530 290 5511 307 5511 348C5511 401 5556 442 5613 442C5654 442 5692 424 5708 397L5708 342L5731 342C5735 377 5739 404 5750 455C5711 474 5683 482 5650 482C5598 482 5537 452 5489 404C5463 377 5452 352 5452 316C5452 260 5483 228 5549 215L5612 203C5656 195 5672 177 5672 138C5672 73 5626 29 5555 29C5520 29 5489 40 5461 64L5461 148ZM5918 390L5862 107C5861 99 5849 61 5849 31C5849 6 5860 -9 5879 -9C5914 -9 5949 11 6027 74L6058 99L6048 117L6003 86C5974 66 5954 56 5943 56C5934 56 5929 64 5929 76C5929 102 5943 183 5972 328L5985 390L6092 390L6103 440C6065 436 6031 434 5993 434C6009 528 6020 577 6038 631L6027 646C6007 634 5980 622 5949 610L5924 440C5880 419 5854 408 5836 403L5834 390Z" stroke="rgb(0,0,0)" stroke-opacity="1" stroke-width="8" fill="rgb(0,0,0)" fill-opacity="1"></path></g></g><g><g transform="matrix(1,0,0,1,115.4625244140625,19)"><path transform="matrix(0.017,0,0,-0.017,0,0)" d="M604 347L604 406L65 406L65 347ZM604 134L604 193L65 193L65 134Z" stroke="rgb(0,0,0)" stroke-opacity="1" stroke-width="8" fill="rgb(0,0,0)" fill-opacity="1"></path></g></g><g><g transform="matrix(1,0,0,1,131.925048828125,19)"><path transform="matrix(0.017,0,0,-0.017,0,0)" d="M103 664L150 662C174 661 185 653 185 636C185 629 179 576 176 559L104 125C89 36 86 31 46 28L10 25L7 -3L39 -3L133 0L227 -3L259 -3L262 25L210 28C184 30 174 37 174 57C174 63 175 74 176 78L265 613C272 652 277 657 316 661L351 664L354 692L248 689C231 689 213 689 170 690L106 692ZM356 388L363 368L395 389C432 412 435 414 442 414C453 414 460 404 460 389C460 338 419 145 378 2L385 -9C410 -2 433 4 455 8C474 134 495 199 541 268C595 352 670 414 715 414C726 414 732 405 732 390C732 372 729 351 721 319L669 107C660 70 656 47 656 31C656 6 667 -9 686 -9C712 -9 748 12 846 85L836 103L810 86C781 67 759 56 749 56C742 56 736 65 736 76C736 81 737 92 738 96L804 372C811 401 815 429 815 446C815 469 804 482 784 482C742 482 673 444 614 389C576 354 548 320 496 247L534 408C538 426 540 438 540 449C540 470 532 482 517 482C496 482 457 460 384 408ZM921 388L928 368L960 389C997 412 1000 414 1007 414C1017 414 1025 404 1025 391C1025 384 1021 361 1017 347L951 107C943 76 938 49 938 30C938 6 949 -9 968 -9C994 -9 1030 12 1128 85L1118 103L1092 86C1063 67 1040 56 1031 56C1024 56 1018 66 1018 76C1018 86 1020 95 1025 116L1102 420C1106 437 1108 448 1108 456C1108 473 1099 482 1083 482C1061 482 1024 461 949 408ZM1115 712C1086 712 1057 679 1057 645C1057 620 1072 604 1096 604C1127 604 1151 633 1151 671C1151 695 1136 712 1115 712ZM1289 390L1233 107C1232 99 1220 61 1220 31C1220 6 1231 -9 1250 -9C1285 -9 1320 11 1398 74L1429 99L1419 117L1374 86C1345 66 1325 56 1314 56C1305 56 1300 64 1300 76C1300 102 1314 183 1343 328L1356 390L1463 390L1474 440C1436 436 1402 434 1364 434C1380 528 1391 577 1409 631L1398 646C1378 634 1351 622 1320 610L1295 440C1251 419 1225 408 1207 403L1205 390ZM1530 388L1537 368L1569 389C1606 412 1609 414 1616 414C1626 414 1634 404 1634 391C1634 384 1630 361 1626 347L1560 107C1552 76 1547 49 1547 30C1547 6 1558 -9 1577 -9C1603 -9 1639 12 1737 85L1727 103L1701 86C1672 67 1649 56 1640 56C1633 56 1627 66 1627 76C1627 86 1629 95 1634 116L1711 420C1715 437 1717 448 1717 456C1717 473 1708 482 1692 482C1670 482 1633 461 1558 408ZM1724 712C1695 712 1666 679 1666 645C1666 620 1681 604 1705 604C1736 604 1760 633 1760 671C1760 695 1745 712 1724 712ZM2044 204L2015 77C2011 60 2009 42 2009 26C2009 4 2018 -9 2033 -9C2056 -9 2097 17 2179 85L2172 106C2148 86 2119 59 2097 59C2088 59 2082 68 2082 82C2082 87 2082 90 2083 93L2175 472L2165 481L2132 463C2091 478 2074 482 2047 482C2019 482 1999 477 1972 464C1910 433 1877 403 1852 354C1808 265 1777 145 1777 67C1777 23 1792 -11 1811 -11C1848 -11 1928 41 2044 204ZM2092 414C2070 305 2051 253 2017 201C1960 117 1899 59 1867 59C1855 59 1849 72 1849 99C1849 163 1877 280 1912 360C1936 415 1959 433 2007 433C2030 433 2048 429 2092 414ZM2467 722L2455 733C2403 707 2367 698 2295 691L2291 670L2339 670C2363 670 2373 663 2373 648C2373 645 2373 640 2370 622C2359 567 2286 182 2271 132C2258 82 2252 52 2252 31C2252 6 2263 -9 2282 -9C2308 -9 2344 12 2442 85L2432 103L2406 86C2377 67 2355 56 2345 56C2338 56 2332 66 2332 76C2332 82 2333 89 2336 104ZM2787 284C2787 90 2894 -18 3085 -18C3181 -18 3252 5 3342 67C3342 67 3352 103 3352 103C3352 103 3342 110 3342 110C3248 53 3196 35 3118 35C2961 35 2875 131 2875 309C2875 447 2932 653 3160 653C3231 653 3283 639 3339 603L3339 519L3366 519C3371 576 3379 619 3393 665C3317 694 3260 706 3198 706C3018 706 2787 578 2787 284ZM3700 204L3671 77C3667 60 3665 42 3665 26C3665 4 3674 -9 3689 -9C3712 -9 3753 17 3835 85L3828 106C3804 86 3775 59 3753 59C3744 59 3738 68 3738 82C3738 87 3738 90 3739 93L3831 472L3821 481L3788 463C3747 478 3730 482 3703 482C3675 482 3655 477 3628 464C3566 433 3533 403 3508 354C3464 265 3433 145 3433 67C3433 23 3448 -11 3467 -11C3504 -11 3584 41 3700 204ZM3748 414C3726 305 3707 253 3673 201C3616 117 3555 59 3523 59C3511 59 3505 72 3505 99C3505 163 3533 280 3568 360C3592 415 3615 433 3663 433C3686 433 3704 429 3748 414ZM4048 -11C4104 -11 4219 62 4262 125C4303 186 4337 296 4337 371C4337 438 4314 482 4278 482C4236 482 4183 456 4131 409C4090 374 4070 348 4034 289L4058 408C4061 425 4063 440 4063 452C4063 471 4055 482 4041 482C4020 482 3982 461 3908 408L3880 388L3887 368L3919 389C3947 407 3958 412 3967 412C3977 412 3984 403 3984 389C3984 381 3982 361 3980 351L3922 8C3912 -52 3893 -143 3873 -233L3865 -270L3872 -276C3893 -269 3913 -264 3945 -259L3987 3C4008 -4 4030 -11 4048 -11ZM4015 165C4037 293 4144 424 4227 424C4253 424 4265 402 4265 356C4265 275 4225 156 4172 80C4152 51 4120 36 4079 36C4048 36 4023 43 3997 59ZM4405 388L4412 368L4444 389C4481 412 4484 414 4491 414C4501 414 4509 404 4509 391C4509 384 4505 361 4501 347L4435 107C4427 76 4422 49 4422 30C4422 6 4433 -9 4452 -9C4478 -9 4514 12 4612 85L4602 103L4576 86C4547 67 4524 56 4515 56C4508 56 4502 66 4502 76C4502 86 4504 95 4509 116L4586 420C4590 437 4592 448 4592 456C4592 473 4583 482 4567 482C4545 482 4508 461 4433 408ZM4599 712C4570 712 4541 679 4541 645C4541 620 4556 604 4580 604C4611 604 4635 633 4635 671C4635 695 4620 712 4599 712ZM4773 390L4717 107C4716 99 4704 61 4704 31C4704 6 4715 -9 4734 -9C4769 -9 4804 11 4882 74L4913 99L4903 117L4858 86C4829 66 4809 56 4798 56C4789 56 4784 64 4784 76C4784 102 4798 183 4827 328L4840 390L4947 390L4958 440C4920 436 4886 434 4848 434C4864 528 4875 577 4893 631L4882 646C4862 634 4835 622 4804 610L4779 440C4735 419 4709 408 4691 403L4689 390ZM5251 204L5222 77C5218 60 5216 42 5216 26C5216 4 5225 -9 5240 -9C5263 -9 5304 17 5386 85L5379 106C5355 86 5326 59 5304 59C5295 59 5289 68 5289 82C5289 87 5289 90 5290 93L5382 472L5372 481L5339 463C5298 478 5281 482 5254 482C5226 482 5206 477 5179 464C5117 433 5084 403 5059 354C5015 265 4984 145 4984 67C4984 23 4999 -11 5018 -11C5055 -11 5135 41 5251 204ZM5299 414C5277 305 5258 253 5224 201C5167 117 5106 59 5074 59C5062 59 5056 72 5056 99C5056 163 5084 280 5119 360C5143 415 5166 433 5214 433C5237 433 5255 429 5299 414ZM5674 722L5662 733C5610 707 5574 698 5502 691L5498 670L5546 670C5570 670 5580 663 5580 648C5580 645 5580 640 5577 622C5566 567 5493 182 5478 132C5465 82 5459 52 5459 31C5459 6 5470 -9 5489 -9C5515 -9 5551 12 5649 85L5639 103L5613 86C5584 67 5562 56 5552 56C5545 56 5539 66 5539 76C5539 82 5540 89 5543 104ZM6207 1C6222 -7 6238 -11 6250 -11C6283 -11 6322 18 6353 65L6429 182L6440 113C6453 28 6476 -11 6512 -11C6534 -11 6566 6 6598 35L6647 79L6638 98C6602 68 6577 53 6561 53C6546 53 6533 63 6523 83C6514 102 6503 139 6498 168L6480 269L6515 318C6562 383 6589 406 6620 406C6636 406 6648 398 6653 383L6667 387L6682 472C6670 479 6661 482 6652 482C6612 482 6572 446 6510 354L6473 299L6467 347C6455 446 6428 482 6369 482C6343 482 6321 474 6312 461L6254 378L6271 368C6301 402 6321 416 6340 416C6373 416 6395 375 6412 277L6423 215L6383 153C6340 86 6306 54 6278 54C6263 54 6252 58 6250 63L6239 91L6219 88C6219 53 6211 27 6207 1ZM7049 664L7096 662C7120 661 7131 653 7131 636C7131 629 7125 576 7122 559L7050 125C7035 36 7032 31 6992 28L6956 25L6953 -3L6985 -3L7079 0L7173 -3L7205 -3L7208 25L7156 28C7130 30 7120 37 7120 57C7120 63 7121 74 7122 78L7211 613C7218 652 7223 657 7262 661L7297 664L7300 692L7194 689C7177 689 7159 689 7116 690L7052 692ZM7302 388L7309 368L7341 389C7378 412 7381 414 7388 414C7399 414 7406 404 7406 389C7406 338 7365 145 7324 2L7331 -9C7356 -2 7379 4 7401 8C7420 134 7441 199 7487 268C7541 352 7616 414 7661 414C7672 414 7678 405 7678 390C7678 372 7675 351 7667 319L7615 107C7606 70 7602 47 7602 31C7602 6 7613 -9 7632 -9C7658 -9 7694 12 7792 85L7782 103L7756 86C7727 67 7705 56 7695 56C7688 56 7682 65 7682 76C7682 81 7683 92 7684 96L7750 372C7757 401 7761 429 7761 446C7761 469 7750 482 7730 482C7688 482 7619 444 7560 389C7522 354 7494 320 7442 247L7480 408C7484 426 7486 438 7486 449C7486 470 7478 482 7463 482C7442 482 7403 460 7330 408ZM7958 390L7902 107C7901 99 7889 61 7889 31C7889 6 7900 -9 7919 -9C7954 -9 7989 11 8067 74L8098 99L8088 117L8043 86C8014 66 7994 56 7983 56C7974 56 7969 64 7969 76C7969 102 7983 183 8012 328L8025 390L8132 390L8143 440C8105 436 8071 434 8033 434C8049 528 8060 577 8078 631L8067 646C8047 634 8020 622 7989 610L7964 440C7920 419 7894 408 7876 403L7874 390ZM8493 111L8469 94C8416 56 8368 36 8332 36C8285 36 8256 73 8256 133C8256 158 8259 185 8264 214C8281 218 8390 248 8415 259C8500 296 8539 342 8539 404C8539 451 8505 482 8455 482C8387 496 8277 423 8240 349C8210 299 8180 180 8180 113C8180 35 8224 -11 8296 -11C8353 -11 8409 17 8501 92ZM8278 274C8295 343 8315 386 8344 412C8362 428 8393 440 8417 440C8446 440 8465 420 8465 388C8465 344 8430 297 8378 272C8350 258 8314 247 8269 237ZM8921 365C8924 403 8929 435 8937 476C8926 481 8922 482 8917 482C8886 482 8855 458 8819 407C8780 351 8741 291 8725 256L8757 408C8761 425 8763 438 8763 450C8763 470 8755 482 8740 482C8719 482 8681 461 8607 408L8579 388L8586 368L8618 389C8646 407 8657 412 8666 412C8676 412 8683 403 8683 390C8683 332 8640 126 8600 -2L8610 -9C8625 -4 8641 -1 8664 4L8677 6L8703 126C8721 209 8744 262 8788 319C8822 363 8849 384 8871 384C8886 384 8896 379 8907 365ZM9269 111L9245 94C9192 56 9144 36 9108 36C9061 36 9032 73 9032 133C9032 158 9035 185 9040 214C9057 218 9166 248 9191 259C9276 296 9315 342 9315 404C9315 451 9281 482 9231 482C9163 496 9053 423 9016 349C8986 299 8956 180 8956 113C8956 35 9000 -11 9072 -11C9129 -11 9185 17 9277 92ZM9054 274C9071 343 9091 386 9120 412C9138 428 9169 440 9193 440C9222 440 9241 420 9241 388C9241 344 9206 297 9154 272C9126 258 9090 247 9045 237ZM9360 148C9355 97 9349 62 9338 16C9376 -2 9410 -11 9445 -11C9494 -11 9540 7 9591 47C9642 87 9663 124 9663 174C9663 228 9631 257 9557 271L9514 279C9454 290 9435 307 9435 348C9435 401 9480 442 9537 442C9578 442 9616 424 9632 397L9632 342L9655 342C9659 377 9663 404 9674 455C9635 474 9607 482 9574 482C9522 482 9461 452 9413 404C9387 377 9376 352 9376 316C9376 260 9407 228 9473 215L9536 203C9580 195 9596 177 9596 138C9596 73 9550 29 9479 29C9444 29 9413 40 9385 64L9385 148ZM9842 390L9786 107C9785 99 9773 61 9773 31C9773 6 9784 -9 9803 -9C9838 -9 9873 11 9951 74L9982 99L9972 117L9927 86C9898 66 9878 56 9867 56C9858 56 9853 64 9853 76C9853 102 9867 183 9896 328L9909 390L10016 390L10027 440C9989 436 9955 434 9917 434C9933 528 9944 577 9962 631L9951 646C9931 634 9904 622 9873 610L9848 440C9804 419 9778 408 9760 403L9758 390ZM10403 664L10459 662C10483 661 10494 653 10494 635C10494 621 10490 589 10485 559L10410 125C10394 34 10392 32 10352 28L10311 25L10307 -3L10349 -2C10396 0 10415 0 10439 0L10536 -3L10562 -3L10565 25L10516 28C10489 30 10480 38 10480 58C10480 67 10481 76 10484 93L10585 648C10614 654 10634 656 10661 656C10748 656 10794 617 10794 543C10794 448 10716 378 10612 378L10568 378L10565 367C10699 172 10730 124 10805 -3C10805 -3 10890 0 10890 0C10891 0 10905 -1 10924 -3L10937 -3L10937 24C10897 29 10886 37 10857 79L10673 354C10728 364 10757 376 10793 402C10851 444 10882 499 10882 560C10882 646 10818 693 10707 691L10406 691ZM11235 204L11206 77C11202 60 11200 42 11200 26C11200 4 11209 -9 11224 -9C11247 -9 11288 17 11370 85L11363 106C11339 86 11310 59 11288 59C11279 59 11273 68 11273 82C11273 87 11273 90 11274 93L11366 472L11356 481L11323 463C11282 478 11265 482 11238 482C11210 482 11190 477 11163 464C11101 433 11068 403 11043 354C10999 265 10968 145 10968 67C10968 23 10983 -11 11002 -11C11039 -11 11119 41 11235 204ZM11283 414C11261 305 11242 253 11208 201C11151 117 11090 59 11058 59C11046 59 11040 72 11040 99C11040 163 11068 280 11103 360C11127 415 11150 433 11198 433C11221 433 11239 429 11283 414ZM11532 390L11476 107C11475 99 11463 61 11463 31C11463 6 11474 -9 11493 -9C11528 -9 11563 11 11641 74L11672 99L11662 117L11617 86C11588 66 11568 56 11557 56C11548 56 11543 64 11543 76C11543 102 11557 183 11586 328L11599 390L11706 390L11717 440C11679 436 11645 434 11607 434C11623 528 11634 577 11652 631L11641 646C11621 634 11594 622 11563 610L11538 440C11494 419 11468 408 11450 403L11448 390ZM12067 111L12043 94C11990 56 11942 36 11906 36C11859 36 11830 73 11830 133C11830 158 11833 185 11838 214C11855 218 11964 248 11989 259C12074 296 12113 342 12113 404C12113 451 12079 482 12029 482C11961 496 11851 423 11814 349C11784 299 11754 180 11754 113C11754 35 11798 -11 11870 -11C11927 -11 11983 17 12075 92ZM11852 274C11869 343 11889 386 11918 412C11936 428 11967 440 11991 440C12020 440 12039 420 12039 388C12039 344 12004 297 11952 272C11924 258 11888 247 11843 237ZM12385 1C12400 -7 12416 -11 12428 -11C12461 -11 12500 18 12531 65L12607 182L12618 113C12631 28 12654 -11 12690 -11C12712 -11 12744 6 12776 35L12825 79L12816 98C12780 68 12755 53 12739 53C12724 53 12711 63 12701 83C12692 102 12681 139 12676 168L12658 269L12693 318C12740 383 12767 406 12798 406C12814 406 12826 398 12831 383L12845 387L12860 472C12848 479 12839 482 12830 482C12790 482 12750 446 12688 354L12651 299L12645 347C12633 446 12606 482 12547 482C12521 482 12499 474 12490 461L12432 378L12449 368C12479 402 12499 416 12518 416C12551 416 12573 375 12590 277L12601 215L12561 153C12518 86 12484 54 12456 54C12441 54 12430 58 12428 63L12417 91L12397 88C12397 53 12389 27 12385 1ZM13514 646L13587 646C13665 646 13701 641 13704 629C13707 621 13709 602 13708 592L13704 528L13732 528L13759 692L13668 691C13580 690 13512 689 13477 689C13440 689 13376 690 13290 691L13195 692L13177 528L13206 528L13221 588C13226 610 13233 626 13239 633C13245 640 13283 646 13320 646L13432 646L13346 125C13330 34 13328 31 13288 28L13237 25L13233 -3L13290 -2C13330 -1 13359 0 13375 0C13394 0 13425 -1 13464 -2L13508 -3L13511 25L13452 28C13426 29 13416 37 13416 58C13416 67 13417 74 13420 93ZM13768 388L13775 368L13807 389C13844 412 13847 414 13854 414C13864 414 13872 404 13872 391C13872 384 13868 361 13864 347L13798 107C13790 76 13785 49 13785 30C13785 6 13796 -9 13815 -9C13841 -9 13877 12 13975 85L13965 103L13939 86C13910 67 13887 56 13878 56C13871 56 13865 66 13865 76C13865 86 13867 95 13872 116L13949 420C13953 437 13955 448 13955 456C13955 473 13946 482 13930 482C13908 482 13871 461 13796 408ZM13962 712C13933 712 13904 679 13904 645C13904 620 13919 604 13943 604C13974 604 13998 633 13998 671C13998 695 13983 712 13962 712ZM14741 103L14715 86C14686 67 14664 56 14654 56C14647 56 14641 65 14641 76C14641 86 14643 95 14648 116L14723 413C14727 430 14730 446 14730 454C14730 471 14720 482 14704 482C14675 482 14637 464 14576 421C14513 376 14478 341 14429 272L14459 409C14463 429 14466 444 14466 451C14466 470 14456 482 14440 482C14410 482 14364 460 14309 418C14265 384 14245 363 14180 275L14213 408C14217 424 14219 439 14219 451C14219 470 14210 482 14196 482C14175 482 14137 461 14063 408L14035 388L14042 368C14079 391 14114 414 14121 414C14132 414 14139 404 14139 389C14139 338 14098 145 14057 2L14060 -9L14128 6L14150 108C14174 219 14201 278 14256 338C14298 384 14343 414 14371 414C14378 414 14382 406 14382 393C14382 358 14360 244 14319 69L14303 2L14308 -9L14377 6L14398 113C14414 194 14448 269 14492 318C14547 379 14597 414 14629 414C14637 414 14642 405 14642 389C14642 365 14639 351 14617 264C14577 105 14561 84 14561 31C14561 6 14572 -9 14591 -9C14617 -9 14653 12 14751 85ZM15116 111L15092 94C15039 56 14991 36 14955 36C14908 36 14879 73 14879 133C14879 158 14882 185 14887 214C14904 218 15013 248 15038 259C15123 296 15162 342 15162 404C15162 451 15128 482 15078 482C15010 496 14900 423 14863 349C14833 299 14803 180 14803 113C14803 35 14847 -11 14919 -11C14976 -11 15032 17 15124 92ZM14901 274C14918 343 14938 386 14967 412C14985 428 15016 440 15040 440C15069 440 15088 420 15088 388C15088 344 15053 297 15001 272C14973 258 14937 247 14892 237Z" stroke="rgb(0,0,0)" stroke-opacity="1" stroke-width="8" fill="rgb(0,0,0)" fill-opacity="1"></path></g></g></g></g></svg>