<svg xmlns="http://www.w3.org/2000/svg" xmlns:xlink="http://www.w3.org/1999/xlink" width="419.6874694824219" height="24.399999618530273" style="width:419.6874694824219px;height:24.399999618530273px;font-family:Asana-Math, Asana;background:#FFF;"><g><g><g><g transform="matrix(1,0,0,1,2,19)"><path transform="matrix(0.017,0,0,-0.017,0,0)" d="M103 664L150 662C174 661 185 653 185 636C185 629 179 576 176 559L104 125C89 36 86 31 46 28L10 25L7 -3L39 -3L133 0L227 -3L259 -3L262 25L210 28C184 30 174 37 174 57C174 63 175 74 176 78L265 613C272 652 277 657 316 661L351 664L354 692L248 689C231 689 213 689 170 690L106 692ZM356 388L363 368L395 389C432 412 435 414 442 414C453 414 460 404 460 389C460 338 419 145 378 2L385 -9C410 -2 433 4 455 8C474 134 495 199 541 268C595 352 670 414 715 414C726 414 732 405 732 390C732 372 729 351 721 319L669 107C660 70 656 47 656 31C656 6 667 -9 686 -9C712 -9 748 12 846 85L836 103L810 86C781 67 759 56 749 56C742 56 736 65 736 76C736 81 737 92 738 96L804 372C811 401 815 429 815 446C815 469 804 482 784 482C742 482 673 444 614 389C576 354 548 320 496 247L534 408C538 426 540 438 540 449C540 470 532 482 517 482C496 482 457 460 384 408ZM1012 390L956 107C955 99 943 61 943 31C943 6 954 -9 973 -9C1008 -9 1043 11 1121 74L1152 99L1142 117L1097 86C1068 66 1048 56 1037 56C1028 56 1023 64 1023 76C1023 102 1037 183 1066 328L1079 390L1186 390L1197 440C1159 436 1125 434 1087 434C1103 528 1114 577 1132 631L1121 646C1101 634 1074 622 1043 610L1018 440C974 419 948 408 930 403L928 390ZM1547 111L1523 94C1470 56 1422 36 1386 36C1339 36 1310 73 1310 133C1310 158 1313 185 1318 214C1335 218 1444 248 1469 259C1554 296 1593 342 1593 404C1593 451 1559 482 1509 482C1441 496 1331 423 1294 349C1264 299 1234 180 1234 113C1234 35 1278 -11 1350 -11C1407 -11 1463 17 1555 92ZM1332 274C1349 343 1369 386 1398 412C1416 428 1447 440 1471 440C1500 440 1519 420 1519 388C1519 344 1484 297 1432 272C1404 258 1368 247 1323 237ZM1975 365C1978 403 1983 435 1991 476C1980 481 1976 482 1971 482C1940 482 1909 458 1873 407C1834 351 1795 291 1779 256L1811 408C1815 425 1817 438 1817 450C1817 470 1809 482 1794 482C1773 482 1735 461 1661 408L1633 388L1640 368L1672 389C1700 407 1711 412 1720 412C1730 412 1737 403 1737 390C1737 332 1694 126 1654 -2L1664 -9C1679 -4 1695 -1 1718 4L1731 6L1757 126C1775 209 1798 262 1842 319C1876 363 1903 384 1925 384C1940 384 1950 379 1961 365ZM2323 111L2299 94C2246 56 2198 36 2162 36C2115 36 2086 73 2086 133C2086 158 2089 185 2094 214C2111 218 2220 248 2245 259C2330 296 2369 342 2369 404C2369 451 2335 482 2285 482C2217 496 2107 423 2070 349C2040 299 2010 180 2010 113C2010 35 2054 -11 2126 -11C2183 -11 2239 17 2331 92ZM2108 274C2125 343 2145 386 2174 412C2192 428 2223 440 2247 440C2276 440 2295 420 2295 388C2295 344 2260 297 2208 272C2180 258 2144 247 2099 237ZM2414 148C2409 97 2403 62 2392 16C2430 -2 2464 -11 2499 -11C2548 -11 2594 7 2645 47C2696 87 2717 124 2717 174C2717 228 2685 257 2611 271L2568 279C2508 290 2489 307 2489 348C2489 401 2534 442 2591 442C2632 442 2670 424 2686 397L2686 342L2709 342C2713 377 2717 404 2728 455C2689 474 2661 482 2628 482C2576 482 2515 452 2467 404C2441 377 2430 352 2430 316C2430 260 2461 228 2527 215L2590 203C2634 195 2650 177 2650 138C2650 73 2604 29 2533 29C2498 29 2467 40 2439 64L2439 148ZM3128 471C3128 386 3166 339 3250 319L3345 296C3399 283 3426 248 3426 191C3426 96 3355 30 3252 30C3198 30 3160 42 3116 73L3116 172L3086 172C3080 117 3073 72 3062 20C3111 -5 3164 -18 3217 -18C3372 -18 3505 99 3505 234C3505 313 3462 355 3361 377L3296 391C3230 405 3200 442 3200 508C3200 595 3267 658 3359 658C3408 658 3441 645 3471 613L3471 537L3501 537C3505 591 3512 629 3526 672C3481 696 3441 706 3394 706C3270 706 3128 614 3128 471ZM3609 388L3616 368L3648 389C3685 412 3688 414 3695 414C3705 414 3713 404 3713 391C3713 384 3709 361 3705 347L3639 107C3631 76 3626 49 3626 30C3626 6 3637 -9 3656 -9C3682 -9 3718 12 3816 85L3806 103L3780 86C3751 67 3728 56 3719 56C3712 56 3706 66 3706 76C3706 86 3708 95 3713 116L3790 420C3794 437 3796 448 3796 456C3796 473 3787 482 3771 482C3749 482 3712 461 3637 408ZM3803 712C3774 712 3745 679 3745 645C3745 620 3760 604 3784 604C3815 604 3839 633 3839 671C3839 695 3824 712 3803 712ZM4582 103L4556 86C4527 67 4505 56 4495 56C4488 56 4482 65 4482 76C4482 86 4484 95 4489 116L4564 413C4568 430 4571 446 4571 454C4571 471 4561 482 4545 482C4516 482 4478 464 4417 421C4354 376 4319 341 4270 272L4300 409C4304 429 4307 444 4307 451C4307 470 4297 482 4281 482C4251 482 4205 460 4150 418C4106 384 4086 363 4021 275L4054 408C4058 424 4060 439 4060 451C4060 470 4051 482 4037 482C4016 482 3978 461 3904 408L3876 388L3883 368C3920 391 3955 414 3962 414C3973 414 3980 404 3980 389C3980 338 3939 145 3898 2L3901 -9L3969 6L3991 108C4015 219 4042 278 4097 338C4139 384 4184 414 4212 414C4219 414 4223 406 4223 393C4223 358 4201 244 4160 69L4144 2L4149 -9L4218 6L4239 113C4255 194 4289 269 4333 318C4388 379 4438 414 4470 414C4478 414 4483 405 4483 389C4483 365 4480 351 4458 264C4418 105 4402 84 4402 31C4402 6 4413 -9 4432 -9C4458 -9 4494 12 4592 85ZM4805 -11C4861 -11 4976 62 5019 125C5060 186 5094 296 5094 371C5094 438 5071 482 5035 482C4993 482 4940 456 4888 409C4847 374 4827 348 4791 289L4815 408C4818 425 4820 440 4820 452C4820 471 4812 482 4798 482C4777 482 4739 461 4665 408L4637 388L4644 368L4676 389C4704 407 4715 412 4724 412C4734 412 4741 403 4741 389C4741 381 4739 361 4737 351L4679 8C4669 -52 4650 -143 4630 -233L4622 -270L4629 -276C4650 -269 4670 -264 4702 -259L4744 3C4765 -4 4787 -11 4805 -11ZM4772 165C4794 293 4901 424 4984 424C5010 424 5022 402 5022 356C5022 275 4982 156 4929 80C4909 51 4877 36 4836 36C4805 36 4780 43 4754 59ZM5379 722L5367 733C5315 707 5279 698 5207 691L5203 670L5251 670C5275 670 5285 663 5285 648C5285 645 5285 640 5282 622C5271 567 5198 182 5183 132C5170 82 5164 52 5164 31C5164 6 5175 -9 5194 -9C5220 -9 5256 12 5354 85L5344 103L5318 86C5289 67 5267 56 5257 56C5250 56 5244 66 5244 76C5244 82 5245 89 5248 104ZM5733 111L5709 94C5656 56 5608 36 5572 36C5525 36 5496 73 5496 133C5496 158 5499 185 5504 214C5521 218 5630 248 5655 259C5740 296 5779 342 5779 404C5779 451 5745 482 5695 482C5627 496 5517 423 5480 349C5450 299 5420 180 5420 113C5420 35 5464 -11 5536 -11C5593 -11 5649 17 5741 92ZM5518 274C5535 343 5555 386 5584 412C5602 428 5633 440 5657 440C5686 440 5705 420 5705 388C5705 344 5670 297 5618 272C5590 258 5554 247 5509 237Z" stroke="rgb(0,0,0)" stroke-opacity="1" stroke-width="8" fill="rgb(0,0,0)" fill-opacity="1"></path></g></g><g><g transform="matrix(1,0,0,1,109.82501220703125,19)"><path transform="matrix(0.017,0,0,-0.017,0,0)" d="M604 347L604 406L65 406L65 347ZM604 134L604 193L65 193L65 134Z" stroke="rgb(0,0,0)" stroke-opacity="1" stroke-width="8" fill="rgb(0,0,0)" fill-opacity="1"></path></g></g><g><g transform="matrix(1,0,0,1,126.2874755859375,19)"><path transform="matrix(0.017,0,0,-0.017,0,0)" d="M45 284C45 90 152 -18 343 -18C439 -18 510 5 600 67C600 67 610 103 610 103C610 103 600 110 600 110C506 53 454 35 376 35C219 35 133 131 133 309C133 447 190 653 418 653C489 653 541 639 597 603L597 519L624 519C629 576 637 619 651 665C575 694 518 706 456 706C276 706 45 578 45 284ZM958 204L929 77C925 60 923 42 923 26C923 4 932 -9 947 -9C970 -9 1011 17 1093 85L1086 106C1062 86 1033 59 1011 59C1002 59 996 68 996 82C996 87 996 90 997 93L1089 472L1079 481L1046 463C1005 478 988 482 961 482C933 482 913 477 886 464C824 433 791 403 766 354C722 265 691 145 691 67C691 23 706 -11 725 -11C762 -11 842 41 958 204ZM1006 414C984 305 965 253 931 201C874 117 813 59 781 59C769 59 763 72 763 99C763 163 791 280 826 360C850 415 873 433 921 433C944 433 962 429 1006 414ZM1306 -11C1362 -11 1477 62 1520 125C1561 186 1595 296 1595 371C1595 438 1572 482 1536 482C1494 482 1441 456 1389 409C1348 374 1328 348 1292 289L1316 408C1319 425 1321 440 1321 452C1321 471 1313 482 1299 482C1278 482 1240 461 1166 408L1138 388L1145 368L1177 389C1205 407 1216 412 1225 412C1235 412 1242 403 1242 389C1242 381 1240 361 1238 351L1180 8C1170 -52 1151 -143 1131 -233L1123 -270L1130 -276C1151 -269 1171 -264 1203 -259L1245 3C1266 -4 1288 -11 1306 -11ZM1273 165C1295 293 1402 424 1485 424C1511 424 1523 402 1523 356C1523 275 1483 156 1430 80C1410 51 1378 36 1337 36C1306 36 1281 43 1255 59ZM1663 388L1670 368L1702 389C1739 412 1742 414 1749 414C1759 414 1767 404 1767 391C1767 384 1763 361 1759 347L1693 107C1685 76 1680 49 1680 30C1680 6 1691 -9 1710 -9C1736 -9 1772 12 1870 85L1860 103L1834 86C1805 67 1782 56 1773 56C1766 56 1760 66 1760 76C1760 86 1762 95 1767 116L1844 420C1848 437 1850 448 1850 456C1850 473 1841 482 1825 482C1803 482 1766 461 1691 408ZM1857 712C1828 712 1799 679 1799 645C1799 620 1814 604 1838 604C1869 604 1893 633 1893 671C1893 695 1878 712 1857 712ZM2031 390L1975 107C1974 99 1962 61 1962 31C1962 6 1973 -9 1992 -9C2027 -9 2062 11 2140 74L2171 99L2161 117L2116 86C2087 66 2067 56 2056 56C2047 56 2042 64 2042 76C2042 102 2056 183 2085 328L2098 390L2205 390L2216 440C2178 436 2144 434 2106 434C2122 528 2133 577 2151 631L2140 646C2120 634 2093 622 2062 610L2037 440C1993 419 1967 408 1949 403L1947 390ZM2509 204L2480 77C2476 60 2474 42 2474 26C2474 4 2483 -9 2498 -9C2521 -9 2562 17 2644 85L2637 106C2613 86 2584 59 2562 59C2553 59 2547 68 2547 82C2547 87 2547 90 2548 93L2640 472L2630 481L2597 463C2556 478 2539 482 2512 482C2484 482 2464 477 2437 464C2375 433 2342 403 2317 354C2273 265 2242 145 2242 67C2242 23 2257 -11 2276 -11C2313 -11 2393 41 2509 204ZM2557 414C2535 305 2516 253 2482 201C2425 117 2364 59 2332 59C2320 59 2314 72 2314 99C2314 163 2342 280 2377 360C2401 415 2424 433 2472 433C2495 433 2513 429 2557 414ZM2932 722L2920 733C2868 707 2832 698 2760 691L2756 670L2804 670C2828 670 2838 663 2838 648C2838 645 2838 640 2835 622C2824 567 2751 182 2736 132C2723 82 2717 52 2717 31C2717 6 2728 -9 2747 -9C2773 -9 2809 12 2907 85L2897 103L2871 86C2842 67 2820 56 2810 56C2803 56 2797 66 2797 76C2797 82 2798 89 2801 104ZM3310 664L3357 662C3381 661 3392 653 3392 636C3392 629 3386 576 3383 559L3311 125C3296 36 3293 31 3253 28L3217 25L3214 -3L3246 -3L3340 0L3434 -3L3466 -3L3469 25L3417 28C3391 30 3381 37 3381 57C3381 63 3382 74 3383 78L3472 613C3479 652 3484 657 3523 661L3558 664L3561 692L3455 689C3438 689 3420 689 3377 690L3313 692ZM3563 388L3570 368L3602 389C3639 412 3642 414 3649 414C3660 414 3667 404 3667 389C3667 338 3626 145 3585 2L3592 -9C3617 -2 3640 4 3662 8C3681 134 3702 199 3748 268C3802 352 3877 414 3922 414C3933 414 3939 405 3939 390C3939 372 3936 351 3928 319L3876 107C3867 70 3863 47 3863 31C3863 6 3874 -9 3893 -9C3919 -9 3955 12 4053 85L4043 103L4017 86C3988 67 3966 56 3956 56C3949 56 3943 65 3943 76C3943 81 3944 92 3945 96L4011 372C4018 401 4022 429 4022 446C4022 469 4011 482 3991 482C3949 482 3880 444 3821 389C3783 354 3755 320 3703 247L3741 408C3745 426 3747 438 3747 449C3747 470 3739 482 3724 482C3703 482 3664 460 3591 408ZM4128 388L4135 368L4167 389C4204 412 4207 414 4214 414C4224 414 4232 404 4232 391C4232 384 4228 361 4224 347L4158 107C4150 76 4145 49 4145 30C4145 6 4156 -9 4175 -9C4201 -9 4237 12 4335 85L4325 103L4299 86C4270 67 4247 56 4238 56C4231 56 4225 66 4225 76C4225 86 4227 95 4232 116L4309 420C4313 437 4315 448 4315 456C4315 473 4306 482 4290 482C4268 482 4231 461 4156 408ZM4322 712C4293 712 4264 679 4264 645C4264 620 4279 604 4303 604C4334 604 4358 633 4358 671C4358 695 4343 712 4322 712ZM4713 330L4736 330C4744 395 4751 432 4760 458C4736 473 4701 482 4664 482C4619 483 4546 463 4489 400C4435 352 4396 241 4396 136C4396 40 4438 -11 4518 -11C4572 -11 4620 9 4675 54L4725 95L4717 115L4702 105C4630 57 4592 40 4557 40C4501 40 4472 80 4472 159C4472 267 4507 371 4556 409C4577 425 4601 433 4632 433C4677 433 4713 414 4713 390ZM4811 388L4818 368L4850 389C4887 412 4890 414 4897 414C4907 414 4915 404 4915 391C4915 384 4911 361 4907 347L4841 107C4833 76 4828 49 4828 30C4828 6 4839 -9 4858 -9C4884 -9 4920 12 5018 85L5008 103L4982 86C4953 67 4930 56 4921 56C4914 56 4908 66 4908 76C4908 86 4910 95 4915 116L4992 420C4996 437 4998 448 4998 456C4998 473 4989 482 4973 482C4951 482 4914 461 4839 408ZM5005 712C4976 712 4947 679 4947 645C4947 620 4962 604 4986 604C5017 604 5041 633 5041 671C5041 695 5026 712 5005 712ZM5325 204L5296 77C5292 60 5290 42 5290 26C5290 4 5299 -9 5314 -9C5337 -9 5378 17 5460 85L5453 106C5429 86 5400 59 5378 59C5369 59 5363 68 5363 82C5363 87 5363 90 5364 93L5456 472L5446 481L5413 463C5372 478 5355 482 5328 482C5300 482 5280 477 5253 464C5191 433 5158 403 5133 354C5089 265 5058 145 5058 67C5058 23 5073 -11 5092 -11C5129 -11 5209 41 5325 204ZM5373 414C5351 305 5332 253 5298 201C5241 117 5180 59 5148 59C5136 59 5130 72 5130 99C5130 163 5158 280 5193 360C5217 415 5240 433 5288 433C5311 433 5329 429 5373 414ZM5748 722L5736 733C5684 707 5648 698 5576 691L5572 670L5620 670C5644 670 5654 663 5654 648C5654 645 5654 640 5651 622C5640 567 5567 182 5552 132C5539 82 5533 52 5533 31C5533 6 5544 -9 5563 -9C5589 -9 5625 12 5723 85L5713 103L5687 86C5658 67 5636 56 5626 56C5619 56 5613 66 5613 76C5613 82 5614 89 5617 104ZM6032 1C6047 -7 6063 -11 6075 -11C6108 -11 6147 18 6178 65L6254 182L6265 113C6278 28 6301 -11 6337 -11C6359 -11 6391 6 6423 35L6472 79L6463 98C6427 68 6402 53 6386 53C6371 53 6358 63 6348 83C6339 102 6328 139 6323 168L6305 269L6340 318C6387 383 6414 406 6445 406C6461 406 6473 398 6478 383L6492 387L6507 472C6495 479 6486 482 6477 482C6437 482 6397 446 6335 354L6298 299L6292 347C6280 446 6253 482 6194 482C6168 482 6146 474 6137 461L6079 378L6096 368C6126 402 6146 416 6165 416C6198 416 6220 375 6237 277L6248 215L6208 153C6165 86 6131 54 6103 54C6088 54 6077 58 6075 63L6064 91L6044 88C6044 53 6036 27 6032 1ZM7161 646L7234 646C7312 646 7348 641 7351 629C7354 621 7356 602 7355 592L7351 528L7379 528L7406 692L7315 691C7227 690 7159 689 7124 689C7087 689 7023 690 6937 691L6842 692L6824 528L6853 528L6868 588C6873 610 6880 626 6886 633C6892 640 6930 646 6967 646L7079 646L6993 125C6977 34 6975 31 6935 28L6884 25L6880 -3L6937 -2C6977 -1 7006 0 7022 0C7041 0 7072 -1 7111 -2L7155 -3L7158 25L7099 28C7073 29 7063 37 7063 58C7063 67 7064 74 7067 93ZM7652 204L7623 77C7619 60 7617 42 7617 26C7617 4 7626 -9 7641 -9C7664 -9 7705 17 7787 85L7780 106C7756 86 7727 59 7705 59C7696 59 7690 68 7690 82C7690 87 7690 90 7691 93L7783 472L7773 481L7740 463C7699 478 7682 482 7655 482C7627 482 7607 477 7580 464C7518 433 7485 403 7460 354C7416 265 7385 145 7385 67C7385 23 7400 -11 7419 -11C7456 -11 7536 41 7652 204ZM7700 414C7678 305 7659 253 7625 201C7568 117 7507 59 7475 59C7463 59 7457 72 7457 99C7457 163 7485 280 7520 360C7544 415 7567 433 7615 433C7638 433 7656 429 7700 414ZM7855 148C7850 97 7844 62 7833 16C7871 -2 7905 -11 7940 -11C7989 -11 8035 7 8086 47C8137 87 8158 124 8158 174C8158 228 8126 257 8052 271L8009 279C7949 290 7930 307 7930 348C7930 401 7975 442 8032 442C8073 442 8111 424 8127 397L8127 342L8150 342C8154 377 8158 404 8169 455C8130 474 8102 482 8069 482C8017 482 7956 452 7908 404C7882 377 7871 352 7871 316C7871 260 7902 228 7968 215L8031 203C8075 195 8091 177 8091 138C8091 73 8045 29 7974 29C7939 29 7908 40 7880 64L7880 148ZM8483 204L8454 77C8450 60 8448 42 8448 26C8448 4 8457 -9 8472 -9C8495 -9 8536 17 8618 85L8611 106C8587 86 8558 59 8536 59C8527 59 8521 68 8521 82C8521 87 8521 90 8522 93L8614 472L8604 481L8571 463C8530 478 8513 482 8486 482C8458 482 8438 477 8411 464C8349 433 8316 403 8291 354C8247 265 8216 145 8216 67C8216 23 8231 -11 8250 -11C8287 -11 8367 41 8483 204ZM8531 414C8509 305 8490 253 8456 201C8399 117 8338 59 8306 59C8294 59 8288 72 8288 99C8288 163 8316 280 8351 360C8375 415 8398 433 8446 433C8469 433 8487 429 8531 414ZM9387 722L9375 733C9323 707 9287 698 9215 691L9211 670L9259 670C9283 670 9293 663 9293 646C9293 638 9292 629 9291 622L9263 468C9233 477 9206 482 9181 482C9112 482 9018 410 8972 323C8941 265 8921 170 8921 86C8921 21 8936 -11 8965 -11C8992 -11 9029 6 9063 33C9117 77 9150 116 9217 217L9194 126C9183 82 9178 50 9178 24C9178 3 9187 -9 9204 -9C9221 -9 9245 3 9279 28L9360 88L9350 107L9306 76C9292 66 9276 59 9267 59C9259 59 9253 68 9253 82C9253 90 9254 99 9261 128ZM9018 59C9002 59 8993 73 8993 98C8993 224 9039 380 9088 418C9101 428 9120 433 9147 433C9191 433 9220 427 9253 410L9241 351C9204 171 9063 59 9018 59ZM9731 111L9707 94C9654 56 9606 36 9570 36C9523 36 9494 73 9494 133C9494 158 9497 185 9502 214C9519 218 9628 248 9653 259C9738 296 9777 342 9777 404C9777 451 9743 482 9693 482C9625 496 9515 423 9478 349C9448 299 9418 180 9418 113C9418 35 9462 -11 9534 -11C9591 -11 9647 17 9739 92ZM9516 274C9533 343 9553 386 9582 412C9600 428 9631 440 9655 440C9684 440 9703 420 9703 388C9703 344 9668 297 9616 272C9588 258 9552 247 9507 237ZM10143 664L10190 662C10214 661 10225 653 10225 636C10225 629 10219 576 10216 559L10144 125C10129 36 10126 31 10086 28L10050 25L10047 -3L10079 -3L10173 0L10267 -3L10299 -3L10302 25L10250 28C10224 30 10214 37 10214 57C10214 63 10215 74 10216 78L10305 613C10312 652 10317 657 10356 661L10391 664L10394 692L10288 689C10271 689 10253 689 10210 690L10146 692ZM10396 388L10403 368L10435 389C10472 412 10475 414 10482 414C10493 414 10500 404 10500 389C10500 338 10459 145 10418 2L10425 -9C10450 -2 10473 4 10495 8C10514 134 10535 199 10581 268C10635 352 10710 414 10755 414C10766 414 10772 405 10772 390C10772 372 10769 351 10761 319L10709 107C10700 70 10696 47 10696 31C10696 6 10707 -9 10726 -9C10752 -9 10788 12 10886 85L10876 103L10850 86C10821 67 10799 56 10789 56C10782 56 10776 65 10776 76C10776 81 10777 92 10778 96L10844 372C10851 401 10855 429 10855 446C10855 469 10844 482 10824 482C10782 482 10713 444 10654 389C10616 354 10588 320 10536 247L10574 408C10578 426 10580 438 10580 449C10580 470 10572 482 10557 482C10536 482 10497 460 10424 408ZM11052 390L10996 107C10995 99 10983 61 10983 31C10983 6 10994 -9 11013 -9C11048 -9 11083 11 11161 74L11192 99L11182 117L11137 86C11108 66 11088 56 11077 56C11068 56 11063 64 11063 76C11063 102 11077 183 11106 328L11119 390L11226 390L11237 440C11199 436 11165 434 11127 434C11143 528 11154 577 11172 631L11161 646C11141 634 11114 622 11083 610L11058 440C11014 419 10988 408 10970 403L10968 390ZM11587 111L11563 94C11510 56 11462 36 11426 36C11379 36 11350 73 11350 133C11350 158 11353 185 11358 214C11375 218 11484 248 11509 259C11594 296 11633 342 11633 404C11633 451 11599 482 11549 482C11481 496 11371 423 11334 349C11304 299 11274 180 11274 113C11274 35 11318 -11 11390 -11C11447 -11 11503 17 11595 92ZM11372 274C11389 343 11409 386 11438 412C11456 428 11487 440 11511 440C11540 440 11559 420 11559 388C11559 344 11524 297 11472 272C11444 258 11408 247 11363 237ZM12015 365C12018 403 12023 435 12031 476C12020 481 12016 482 12011 482C11980 482 11949 458 11913 407C11874 351 11835 291 11819 256L11851 408C11855 425 11857 438 11857 450C11857 470 11849 482 11834 482C11813 482 11775 461 11701 408L11673 388L11680 368L11712 389C11740 407 11751 412 11760 412C11770 412 11777 403 11777 390C11777 332 11734 126 11694 -2L11704 -9C11719 -4 11735 -1 11758 4L11771 6L11797 126C11815 209 11838 262 11882 319C11916 363 11943 384 11965 384C11980 384 11990 379 12001 365ZM12285 -20C12363 -20 12444 24 12452 36L12472 70L12459 80C12395 42 12372 33 12329 33C12264 33 12210 62 12182 111C12163 144 12156 172 12154 230L12300 230C12369 230 12412 233 12481 244C12482 258 12483 267 12483 279C12483 394 12409 469 12297 469C12260 469 12217 456 12176 432C12094 385 12061 323 12061 219C12061 24 12197 -20 12285 -20ZM12394 267C12342 265 12318 264 12282 264C12236 264 12210 265 12156 270C12156 317 12160 339 12173 365C12194 409 12237 436 12285 436C12318 436 12344 423 12362 396C12384 363 12391 334 12394 267ZM12186 506L12226 506L12370 596C12403 617 12410 625 12410 643C12410 662 12396 677 12379 677C12364 677 12346 666 12324 644ZM12544 148C12539 97 12533 62 12522 16C12560 -2 12594 -11 12629 -11C12678 -11 12724 7 12775 47C12826 87 12847 124 12847 174C12847 228 12815 257 12741 271L12698 279C12638 290 12619 307 12619 348C12619 401 12664 442 12721 442C12762 442 12800 424 12816 397L12816 342L12839 342C12843 377 12847 404 12858 455C12819 474 12791 482 12758 482C12706 482 12645 452 12597 404C12571 377 12560 352 12560 316C12560 260 12591 228 12657 215L12720 203C12764 195 12780 177 12780 138C12780 73 12734 29 12663 29C12628 29 12597 40 12569 64L12569 148ZM13159 1C13174 -7 13190 -11 13202 -11C13235 -11 13274 18 13305 65L13381 182L13392 113C13405 28 13428 -11 13464 -11C13486 -11 13518 6 13550 35L13599 79L13590 98C13554 68 13529 53 13513 53C13498 53 13485 63 13475 83C13466 102 13455 139 13450 168L13432 269L13467 318C13514 383 13541 406 13572 406C13588 406 13600 398 13605 383L13619 387L13634 472C13622 479 13613 482 13604 482C13564 482 13524 446 13462 354L13425 299L13419 347C13407 446 13380 482 13321 482C13295 482 13273 474 13264 461L13206 378L13223 368C13253 402 13273 416 13292 416C13325 416 13347 375 13364 277L13375 215L13335 153C13292 86 13258 54 13230 54C13215 54 13204 58 13202 63L13191 91L13171 88C13171 53 13163 27 13159 1ZM14288 646L14361 646C14439 646 14475 641 14478 629C14481 621 14483 602 14482 592L14478 528L14506 528L14533 692L14442 691C14354 690 14286 689 14251 689C14214 689 14150 690 14064 691L13969 692L13951 528L13980 528L13995 588C14000 610 14007 626 14013 633C14019 640 14057 646 14094 646L14206 646L14120 125C14104 34 14102 31 14062 28L14011 25L14007 -3L14064 -2C14104 -1 14133 0 14149 0C14168 0 14199 -1 14238 -2L14282 -3L14285 25L14226 28C14200 29 14190 37 14190 58C14190 67 14191 74 14194 93ZM14542 388L14549 368L14581 389C14618 412 14621 414 14628 414C14638 414 14646 404 14646 391C14646 384 14642 361 14638 347L14572 107C14564 76 14559 49 14559 30C14559 6 14570 -9 14589 -9C14615 -9 14651 12 14749 85L14739 103L14713 86C14684 67 14661 56 14652 56C14645 56 14639 66 14639 76C14639 86 14641 95 14646 116L14723 420C14727 437 14729 448 14729 456C14729 473 14720 482 14704 482C14682 482 14645 461 14570 408ZM14736 712C14707 712 14678 679 14678 645C14678 620 14693 604 14717 604C14748 604 14772 633 14772 671C14772 695 14757 712 14736 712ZM15113 111L15089 94C15036 56 14988 36 14952 36C14905 36 14876 73 14876 133C14876 158 14879 185 14884 214C14901 218 15010 248 15035 259C15120 296 15159 342 15159 404C15159 451 15125 482 15075 482C15007 496 14897 423 14860 349C14830 299 14800 180 14800 113C14800 35 14844 -11 14916 -11C14973 -11 15029 17 15121 92ZM14898 274C14915 343 14935 386 14964 412C14982 428 15013 440 15037 440C15066 440 15085 420 15085 388C15085 344 15050 297 14998 272C14970 258 14934 247 14889 237ZM15903 103L15877 86C15848 67 15826 56 15816 56C15809 56 15803 65 15803 76C15803 86 15805 95 15810 116L15885 413C15889 430 15892 446 15892 454C15892 471 15882 482 15866 482C15837 482 15799 464 15738 421C15675 376 15640 341 15591 272L15621 409C15625 429 15628 444 15628 451C15628 470 15618 482 15602 482C15572 482 15526 460 15471 418C15427 384 15407 363 15342 275L15375 408C15379 424 15381 439 15381 451C15381 470 15372 482 15358 482C15337 482 15299 461 15225 408L15197 388L15204 368C15241 391 15276 414 15283 414C15294 414 15301 404 15301 389C15301 338 15260 145 15219 2L15222 -9L15290 6L15312 108C15336 219 15363 278 15418 338C15460 384 15505 414 15533 414C15540 414 15544 406 15544 393C15544 358 15522 244 15481 69L15465 2L15470 -9L15539 6L15560 113C15576 194 15610 269 15654 318C15709 379 15759 414 15791 414C15799 414 15804 405 15804 389C15804 365 15801 351 15779 264C15739 105 15723 84 15723 31C15723 6 15734 -9 15753 -9C15779 -9 15815 12 15913 85ZM16126 -11C16182 -11 16297 62 16340 125C16381 186 16415 296 16415 371C16415 438 16392 482 16356 482C16314 482 16261 456 16209 409C16168 374 16148 348 16112 289L16136 408C16139 425 16141 440 16141 452C16141 471 16133 482 16119 482C16098 482 16060 461 15986 408L15958 388L15965 368L15997 389C16025 407 16036 412 16045 412C16055 412 16062 403 16062 389C16062 381 16060 361 16058 351L16000 8C15990 -52 15971 -143 15951 -233L15943 -270L15950 -276C15971 -269 15991 -264 16023 -259L16065 3C16086 -4 16108 -11 16126 -11ZM16093 165C16115 293 16222 424 16305 424C16331 424 16343 402 16343 356C16343 275 16303 156 16250 80C16230 51 16198 36 16157 36C16126 36 16101 43 16075 59ZM16466 152C16466 46 16511 -11 16594 -11C16649 -11 16709 15 16754 57C16816 116 16860 230 16860 331C16860 425 16810 482 16727 482C16623 482 16466 382 16466 152ZM16690 444C16751 444 16784 399 16784 315C16784 219 16753 113 16709 60C16691 39 16665 27 16634 27C16576 27 16542 72 16542 151C16542 264 16581 387 16630 427C16643 438 16666 444 16690 444Z" stroke="rgb(0,0,0)" stroke-opacity="1" stroke-width="8" fill="rgb(0,0,0)" fill-opacity="1"></path></g></g></g></g></svg>