<svg xmlns="http://www.w3.org/2000/svg" xmlns:xlink="http://www.w3.org/1999/xlink" width="73.60001373291016" height="24.399999618530273" style="width:73.60001373291016px;height:24.399999618530273px;font-family:Asana-Math, Asana;background:#FFF;"><g><g><g><g transform="matrix(1,0,0,1,2,19)"><path transform="matrix(0.017,0,0,-0.017,0,0)" d="M103 664L150 662C174 661 185 653 185 636C185 629 179 576 176 559L104 125C89 36 86 31 46 28L10 25L7 -3L39 -3L133 0L227 -3L259 -3L262 25L210 28C184 30 174 37 174 57C174 63 175 74 176 78L265 613C272 652 277 657 316 661L351 664L354 692L248 689C231 689 213 689 170 690L106 692Z" stroke="rgb(0,0,0)" stroke-opacity="1" stroke-width="8" fill="rgb(0,0,0)" fill-opacity="1"></path></g></g><g><g transform="matrix(1,0,0,1,16.98748779296875,19)"><path transform="matrix(0.017,0,0,-0.017,0,0)" d="M604 347L604 406L65 406L65 347ZM604 134L604 193L65 193L65 134Z" stroke="rgb(0,0,0)" stroke-opacity="1" stroke-width="8" fill="rgb(0,0,0)" fill-opacity="1"></path></g></g><g><g transform="matrix(1,0,0,1,33.45001220703125,19)"><path transform="matrix(0.017,0,0,-0.017,0,0)" d="M354 664L409 662C433 661 444 653 444 635L361 125C344 34 343 31 303 28L262 25L258 -3L300 -2C341 -1 372 0 390 0C407 0 436 -1 476 -2L529 -3L532 25L467 28C441 29 431 37 431 58C431 67 432 74 435 93L533 648C569 654 585 656 604 656C706 656 755 612 755 519C755 411 683 323 595 323C573 323 553 328 516 342L518 311C555 293 575 288 604 288C733 288 843 405 843 541C843 642 780 695 661 692L357 692ZM1117 1C1132 -7 1148 -11 1160 -11C1193 -11 1232 18 1263 65L1339 182L1350 113C1363 28 1386 -11 1422 -11C1444 -11 1476 6 1508 35L1557 79L1548 98C1512 68 1487 53 1471 53C1456 53 1443 63 1433 83C1424 102 1413 139 1408 168L1390 269L1425 318C1472 383 1499 406 1530 406C1546 406 1558 398 1563 383L1577 387L1592 472C1580 479 1571 482 1562 482C1522 482 1482 446 1420 354L1383 299L1377 347C1365 446 1338 482 1279 482C1253 482 1231 474 1222 461L1164 378L1181 368C1211 402 1231 416 1250 416C1283 416 1305 375 1322 277L1333 215L1293 153C1250 86 1216 54 1188 54C1173 54 1162 58 1160 63L1149 91L1129 88C1129 53 1121 27 1117 1ZM2224 365C2227 403 2232 435 2240 476C2229 481 2225 482 2220 482C2189 482 2158 458 2122 407C2083 351 2044 291 2028 256L2060 408C2064 425 2066 438 2066 450C2066 470 2058 482 2043 482C2022 482 1984 461 1910 408L1882 388L1889 368L1921 389C1949 407 1960 412 1969 412C1979 412 1986 403 1986 390C1986 332 1943 126 1903 -2L1913 -9C1928 -4 1944 -1 1967 4L1980 6L2006 126C2024 209 2047 262 2091 319C2125 363 2152 384 2174 384C2189 384 2199 379 2210 365Z" stroke="rgb(0,0,0)" stroke-opacity="1" stroke-width="8" fill="rgb(0,0,0)" fill-opacity="1"></path></g></g></g></g></svg>